<?xml version="1.0" encoding="utf-8"?>
<!-- Generator: Adobe Illustrator 28.0.0, SVG Export Plug-In . SVG Version: 6.00 Build 0)  -->
<svg version="1.1" id="Camada_1" xmlns="http://www.w3.org/2000/svg" xmlns:xlink="http://www.w3.org/1999/xlink" x="0px" y="0px"
	 viewBox="0 0 888.58 888.8" style="enable-background:new 0 0 888.58 888.8;" xml:space="preserve">
<style type="text/css">
	.st0{fill:#FFFFFF;}
</style>
<g>
	<g>
		<path class="st0" d="M141.35,691.92l-8.87-12.94c6.4-4.95,7.85-13.18,2.16-21.49c-6.29-9.17-12.76-10.55-16.92-7.7
			c-4.25,2.91-4.61,7.14-2.52,13.08l4.62,13.15c4.22,12.15,4.16,22.83-6.65,30.24c-11.49,7.87-26.24,4.37-36.43-10.5
			c-10.65-15.54-7.2-31.82,4.64-40.22l8.87,12.93c-4.69,3.5-7,10.9-1.44,19.01c5.56,8.11,11.57,8.39,14.85,6.14
			c4.34-2.98,3.74-6.96,1.59-13.01l-4.82-13.86c-4.76-13.77-1.25-23.55,8.31-30.1c12.07-8.27,27.92-2.12,37.98,12.56
			C157.96,665.63,154.8,682.13,141.35,691.92z"/>
		<path class="st0" d="M88.06,580.89l12.83,29.64l19.29-2.87l6.37,14.72l-83.92,12.35l-12.18-28.14l66.54-52.52l6.37,14.72
			L88.06,580.89z M75.73,590.69L39.27,619.6l46.03-6.79L75.73,590.69z"/>
		<path class="st0" d="M16.29,565.25l-3.53-15.4l65.82-15.1l-8.11-35.36l14.03-3.22l11.65,50.76L16.29,565.25z"/>
		<path class="st0" d="M62.99,445.4l1.39,32.27l19.04,4.22l0.69,16.02L1.32,479.45L0,448.81l80.91-25.27l0.69,16.02L62.99,445.4z
			 M47.97,450.14L3.59,464.12L49,474.23L47.97,450.14z"/>
		<path class="st0" d="M66.88,421.49l-45.46-52.12l-6.47,43.29l-14.47-2.16l9.38-62.74l14.47,2.16l45.48,52l6.71-44.91l14.47,2.16
			l-9.64,64.47L66.88,421.49z"/>
		<path class="st0" d="M90.53,302.55l-10.75,30.46l16.09,11.01l-5.34,15.12l-69.93-48.01l10.2-28.92l84.5,6.73l-5.34,15.12
			L90.53,302.55z M74.82,301.35l-46.39-3.59l38.37,26.32L74.82,301.35z"/>
		<path class="st0" d="M48.65,241.13l17.85-29.82c7.81-13.05,21.48-16.06,33.43-8.91c12.25,7.33,16.74,19.43,8.14,33.79l-8.35,13.96
			l52.04-21.77l-13.4,22.39l-25.98,10.36l14.56,8.71l-7.99,13.36L48.65,241.13z M94.01,231.19c3.91-6.53,3.72-11-2.4-14.67
			c-5.92-3.55-10.16-1.71-14.07,4.81l-8.35,13.96l16.47,9.86L94.01,231.19z"/>
		<path class="st0" d="M144.37,183.71l-9.74-10.12c-15.5-16.1-14.15-34.95,0.68-49.23c14.58-14.04,32.49-15.36,46.71-1.43
			l-11.38,10.96c-7.56-7.18-16.18-6.85-24.77,1.43c-8.85,8.52-8.87,17.96,0.14,27.32l9.74,10.12c9.01,9.36,18.85,10.12,27.7,1.6
			c8.35-8.04,9.01-16.8,2.61-24.45l11.38-10.96c12.8,14.64,10.48,32.15-3.85,45.95C178.75,199.18,159.87,199.82,144.37,183.71z"/>
		<path class="st0" d="M204.01,127.7l-7.37-11.96c-11.73-19.03-6.41-37.16,11.13-47.97c17.53-10.81,36.12-7.42,47.85,11.61
			l7.37,11.96c11.73,19.03,6.41,37.16-11.13,47.97C234.32,150.12,215.74,146.73,204.01,127.7z M244.18,126.85
			c9.96-6.14,12.36-15.86,5.36-27.22l-7.37-11.96c-7-11.36-16.46-13.09-26.42-6.95c-9.96,6.14-12.66,15.37-5.66,26.72l7.37,11.96
			C224.46,130.76,234.22,133,244.18,126.85z"/>
		<path class="st0" d="M261.97,38.5l28.39-10.3l46.94,67.63l-27.13-74.82l14.3-5.19l27.93,77.02l-29.05,10.53l-46.08-67.32
			l26.93,74.27l-14.3,5.19L261.97,38.5z"/>
		<path class="st0" d="M357.57,56.7l-1.85-13.92c-2.94-22.16,9.31-36.54,29.73-39.25c20.07-2.67,35.27,6.88,38.47,26.52l-15.66,2.08
			c-1.84-10.26-8.97-15.1-20.81-13.53c-12.18,1.62-17.78,9.21-16.07,22.09l1.85,13.92c1.71,12.88,9.18,19.32,21.36,17.7
			c11.48-1.53,17.21-8.19,16.6-18.14l15.66-2.08c1.63,19.38-10.61,32.11-30.33,34.73C376.1,89.53,360.52,78.85,357.57,56.7z"/>
		<path class="st0" d="M446.17,0l54.9,3.37l-0.9,14.6l-39.13-2.4l-1.1,17.87l35.51,2.18l-0.88,14.25l-35.51-2.18l-1.25,20.44
			l39.13,2.4l-0.9,14.6l-54.9-3.37L446.17,0z"/>
		<path class="st0" d="M526.4,7.54l33.7,8.5c14.75,3.72,21.57,15.94,18.16,29.44c-3.49,13.84-15.26,21.26-30.01,17.54l-18.61-4.69
			l-8.19,32.46l-15.09-3.81L526.4,7.54z M548.99,48.12c7.38,1.86,11.61,0.39,13.35-6.53c1.69-6.7-1.28-10.22-8.66-12.08l-15.77-3.98
			l-4.69,18.61L548.99,48.12z"/>
		<path class="st0" d="M616.61,51.33l-21.59-9.91l6.1-13.3l57.65,26.47l-6.1,13.29l-21.7-9.96l-28.08,61.16l-14.36-6.59
			L616.61,51.33z"/>
		<path class="st0" d="M639.43,121.33c3.51,2.11,5.56,5.77,3.15,9.77l-1.28,2.14c-2.41,4.01-6.6,3.9-10.11,1.78
			c-3.51-2.12-5.56-5.77-3.15-9.77l1.29-2.13C631.73,119.1,635.92,119.21,639.43,121.33z M632.27,133.21
			c2.69,1.62,5.36,1.8,7.12-1.13l1.28-2.14c1.76-2.92,0.36-5.2-2.33-6.82c-2.69-1.62-5.36-1.8-7.12,1.13l-1.29,2.13
			C628.18,129.31,629.58,131.59,632.27,133.21z M634.79,123.23l3.09,1.86c1.51,0.91,1.92,2.32,1.12,3.63
			c-0.93,1.54-2.12,1.81-3.63,0.9l-0.85-0.51l2.04,4.49l-2.82-1.7l-0.75-1.8l-0.59,0.99l-1.71-1.03L634.79,123.23z M636.05,127.83
			c0.53,0.32,0.85,0.29,1.15-0.2c0.22-0.36,0.11-0.7-0.42-1.01l-1.25-0.75l-0.73,1.21L636.05,127.83z"/>
		<path class="st0" d="M760.36,214.65l8.16,13.39c-6.65,4.6-8.54,12.74-3.31,21.34c5.78,9.5,12.18,11.22,16.48,8.6
			c4.4-2.68,4.99-6.88,3.22-12.93l-3.9-13.38c-3.56-12.36-2.92-23.02,8.27-29.84c11.89-7.25,26.43-2.95,35.81,12.44
			c9.8,16.09,5.47,32.16-6.8,39.91l-8.16-13.39c4.88-3.24,7.58-10.51,2.46-18.91c-5.11-8.4-11.1-9-14.5-6.93
			c-4.5,2.74-4.11,6.75-2.28,12.9l4.07,14.1c4.01,14-0.02,23.58-9.92,29.61c-12.49,7.61-28,0.61-37.25-14.58
			C742.37,240,746.42,223.69,760.36,214.65z"/>
		<path class="st0" d="M807.54,328.39l-11.18-30.3l-19.42,1.8l-5.55-15.04l84.47-7.72l10.61,28.77l-69.32,48.78l-5.55-15.04
			L807.54,328.39z M820.39,319.28l37.99-26.87l-46.33,4.25L820.39,319.28z"/>
		<path class="st0" d="M878.34,347.97l2.68,15.57l-66.55,11.45l6.15,35.76l-14.19,2.44l-8.83-51.33L878.34,347.97z"/>
		<path class="st0" d="M825.13,465.06l0.38-32.3l-18.78-5.25l0.19-16.03l81.66,22.96l-0.36,30.66l-82.17,20.81l0.19-16.03
			L825.13,465.06z M840.39,461.14l45.08-11.53l-44.8-12.58L840.39,461.14z"/>
		<path class="st0" d="M819.93,488.74l42.55,54.52l8.82-42.87l14.33,2.95l-12.78,62.13l-14.33-2.95l-42.58-54.4l-9.15,44.48
			l-14.33-2.95l13.14-63.85L819.93,488.74z"/>
		<path class="st0" d="M789.85,606.19l12.39-29.83l-15.47-11.88l6.15-14.81l67.21,51.75l-11.77,28.31l-84-11.33l6.15-14.81
			L789.85,606.19z M805.47,608.25l46.13,6.11l-36.88-28.37L805.47,608.25z"/>
		<path class="st0" d="M828.28,669.86l-19.46,28.8c-8.52,12.61-22.33,14.85-33.87,7.06c-11.83-8-15.65-20.32-6.27-34.19l9.11-13.48
			l-53.16,18.88l14.61-21.62l26.51-8.92l-14.06-9.5l8.72-12.89L828.28,669.86z M782.43,677.3c-4.26,6.3-4.32,10.78,1.59,14.78
			c5.72,3.87,10.05,2.27,14.31-4.03l9.11-13.48l-15.9-10.75L782.43,677.3z"/>
		<path class="st0" d="M729.55,721.9l9.17,10.64c14.6,16.93,12.21,35.67-3.39,49.12c-15.33,13.22-33.28,13.55-46.72-1.14
			l11.97-10.32c7.15,7.58,15.77,7.72,24.82-0.07c9.31-8.02,9.84-17.44,1.36-27.28l-9.17-10.64c-8.48-9.84-18.26-11.14-27.57-3.12
			c-8.78,7.57-9.92,16.28-3.96,24.27l-11.97,10.32c-11.98-15.33-8.7-32.68,6.37-45.67C696.06,704.56,714.95,704.96,729.55,721.9z"/>
		<path class="st0" d="M666.85,774.24l6.83,12.27c10.87,19.53,4.74,37.41-13.26,47.42c-18,10.01-36.42,5.8-47.28-13.74l-6.83-12.27
			c-10.87-19.53-4.74-37.41,13.26-47.42C637.57,750.49,655.99,754.71,666.85,774.24z M626.68,773.29
			c-10.23,5.69-13.05,15.3-6.57,26.96l6.83,12.27c6.48,11.66,15.85,13.81,26.08,8.12c10.23-5.69,13.34-14.79,6.85-26.45l-6.83-12.27
			C646.56,770.26,636.91,767.6,626.68,773.29z"/>
		<path class="st0" d="M604.18,860.49l-28.91,8.72l-43.14-70.12l22.97,76.2l-14.57,4.39l-23.65-78.44l29.58-8.92l42.3,69.76
			l-22.8-75.64l14.57-4.39L604.18,860.49z"/>
		<path class="st0" d="M509.7,837.06l1.08,14c1.72,22.29-11.31,35.97-31.85,37.56c-20.19,1.56-34.84-8.81-36.96-28.6l15.75-1.22
			c1.27,10.35,8.13,15.57,20.03,14.65c12.25-0.95,18.26-8.22,17.26-21.17l-1.08-14c-1-12.95-8.1-19.8-20.36-18.85
			c-11.55,0.89-17.64,7.23-17.57,17.21l-15.75,1.22c-0.56-19.44,12.36-31.48,32.2-33.01C493,803.25,507.98,814.77,509.7,837.06z"/>
		<path class="st0" d="M418.2,888.8l-54.64-6.36l1.69-14.53l38.94,4.53l2.07-17.78l-35.34-4.11l1.65-14.18l35.34,4.11l2.37-20.34
			l-38.94-4.53l1.69-14.53l54.63,6.36L418.2,888.8z"/>
		<path class="st0" d="M338.46,876.9l-33.19-10.33c-14.53-4.52-20.67-17.09-16.53-30.39c4.24-13.63,16.39-20.39,30.92-15.87
			l18.33,5.7l9.94-31.96l14.86,4.62L338.46,876.9z M318.11,835.15c-7.26-2.26-11.57-1.02-13.69,5.79
			c-2.05,6.59,0.72,10.28,7.99,12.54l15.53,4.83l5.7-18.33L318.11,835.15z"/>
		<path class="st0" d="M250.78,828.26l21.02,11.08l-6.82,12.94l-56.11-29.58l6.82-12.94l21.12,11.13l31.38-59.53l13.98,7.37
			L250.78,828.26z"/>
		<path class="st0" d="M231.83,757.12c-3.39-2.3-5.24-6.06-2.61-9.93l1.4-2.06c2.63-3.87,6.8-3.53,10.2-1.23s5.24,6.06,2.61,9.93
			l-1.4,2.06C239.4,759.76,235.23,759.42,231.83,757.12z M239.63,745.64c-2.6-1.77-5.25-2.09-7.17,0.73l-1.4,2.06
			c-1.92,2.82-0.64,5.17,1.96,6.94c2.6,1.77,5.25,2.09,7.17-0.73l1.4-2.06C243.51,749.76,242.23,747.41,239.63,745.64z
			 M236.57,755.47l-2.98-2.03c-1.46-0.99-1.79-2.42-0.92-3.69c1.01-1.49,2.22-1.69,3.67-0.7l0.82,0.56l-1.79-4.6l2.73,1.85
			l0.65,1.83l0.65-0.95l1.65,1.12L236.57,755.47z M235.57,750.8c-0.51-0.34-0.84-0.34-1.16,0.14c-0.24,0.35-0.14,0.69,0.36,1.03
			l1.2,0.82l0.8-1.17L235.57,750.8z"/>
	</g>
	<g>
		<path class="st0" d="M691.14,384.27c0.65-2.16,0.8-4.48,0.39-6.8c-0.38-2.13-1.22-4.09-2.41-5.78c0.06-0.61,0.1-1.24,0.1-1.89
			c0.12-0.23,0.24-0.47,0.36-0.71c2.25-4.7,2.3-9.97,0.14-14.46c-0.9-1.86-2.26-3.95-6.89-9.65c-1.4-1.72-2.55-3.71-3.42-5.92
			c-2.39-6.07-7.71-16.21-19.44-30.01c-0.56-0.65-1.23-2.14-1.95-3.72c-1.21-2.66-2.71-5.98-5.3-9.31
			c-3.07-3.94-6.77-6.76-10.03-9.25c-1.56-1.19-3.03-2.31-3.98-3.22c-0.17-0.19-1.28-1.51-3.35-5.91
			c-1.68-3.56-3.34-7.74-4.95-11.79c-4.3-10.82-6.76-16.65-11.31-20.59c-3.69-3.19-7.59-4.73-10.44-5.85
			c-0.87-0.34-2.02-0.8-2.54-1.09c-0.43-0.74-0.9-1.61-1.39-2.53c-4.05-7.52-10.84-20.09-28.65-28.45
			c-8.5-3.99-16.5-7.34-23.57-10.29c-2.88-1.21-5.61-2.35-8.07-3.41c-1.95-0.84-4.01-1.38-6.11-1.61c0,0,0,0,0,0
			c-11.19-1.19-21.29,6.59-22.99,17.72c-1.48,9.71-2.4,16.4-2.72,19.9c-0.37,4.1-2.97,12.67-5.92,19.52c-0.1,0.24-0.2,0.48-0.3,0.72
			l-2.31-1.36c-1.84-1.09-3.84-1.72-5.86-1.94c-2.74-0.29-5.52,0.2-7.99,1.41l-9.35-4.74c-1.63-0.82-3.34-1.32-5.06-1.5
			c-2.3-0.25-4.62,0.07-6.75,0.88l-15.91-7.32c-1.48-0.68-3.02-1.09-4.56-1.26c-3.1-0.33-6.22,0.35-8.88,1.89l-7.47-3.37
			c-1.45-0.65-2.95-1.05-4.46-1.21c-5.87-0.63-11.75,2.37-14.57,7.9c-0.38,0.75-0.69,1.52-0.93,2.29l-7.33-2.26
			c-0.92-0.28-1.84-0.47-2.77-0.57c-6.45-0.69-12.76,3.01-15.17,9.28c-0.1,0.25-0.18,0.5-0.27,0.75c-3.98,1.22-7.33,4.12-9.07,8.05
			l-6.65-0.31c-7.37-0.35-13.85,4.86-15.09,12.14c-0.04,0.21-0.07,0.43-0.1,0.64l-4.02-0.09c-6.04-0.14-11.47,3.44-13.78,8.88
			l-3.26-0.35c-0.01,0-0.02,0-0.03,0c-7.25-0.77-13.95,3.91-15.72,10.98c-0.1,0.41-0.19,0.82-0.25,1.24
			c-2.19,0.69-4.17,1.87-5.79,3.44l-10.17-1.12c-0.02,0-0.04,0-0.06-0.01c-7.32-0.78-14.08,4.01-15.77,11.19
			c-0.01,0.04-0.02,0.09-0.03,0.13c-1.51,1.2-2.78,2.7-3.72,4.41l-3.65,0.16c-7.02,0.3-12.77,5.53-13.82,12.37l-1.27,0.07
			c-6.86,0.39-12.39,5.48-13.55,12.03l-7.8,1.91c-7.17,1.75-11.91,8.58-11.04,15.91c0.04,0.31,0.08,0.62,0.14,0.93l-14.18,6.28
			c-6.26,2.77-9.69,9.48-8.44,16.07c-4.27,3.93-5.93,10.19-3.77,15.91c0.88,2.34,2.31,4.33,4.08,5.87
			c-3.96,4.44-4.85,10.91-2.14,16.28l-7.38,7.38c-5.13,5.13-5.72,13.25-1.38,19.07c0.27,0.36,0.56,0.71,0.86,1.05l-0.64,0.82
			c-4.55,5.83-4.03,14.14,1.22,19.35c0.94,0.93,1.97,1.71,3.07,2.34c-0.15,0.31-0.3,0.63-0.45,0.95
			c-4.09,8.73-7.86,25.92-6.19,47.99c0.18,2.33,0.33,4.98,0.49,7.78c1.18,20.57,2.96,51.67,20.6,76.98
			c6.48,9.3,24.74,33.34,54.15,55.56c15.21,11.49,31.39,20.99,48.11,28.24c19.89,8.62,40.75,14.14,62.01,16.4
			c8.42,0.9,17.05,1.3,25.63,1.18c0.31,0,0.62-0.02,0.93-0.04c2.23-0.17,53.74-4.53,97.26-41.14c3.66-0.87,6.9-3.14,8.96-6.41
			l2.89-4.57l2.35-1.37c1.93-1.12,3.57-2.67,4.8-4.51l4.9-1.35c4.07-1.12,7.45-3.94,9.29-7.74c0.52-1.07,0.89-2.18,1.14-3.32
			c1.04-1.26,1.88-2.7,2.46-4.3l2.97-8.16l4.81-1.86c5.38-2.08,9.04-7.13,9.33-12.89l0.45-8.95l6.37-8.15
			c3.64-4.65,4.12-11.03,1.22-16.18l-0.23-0.41c1.5-3.05,1.92-6.58,1.08-9.97l-1.92-7.79l0.81-2.93c1.2-4.31,0.36-8.94-2.29-12.55
			l-2.78-3.8l-0.26-5.72c-0.09-1.96-0.57-3.87-1.4-5.62c2.52,0.15,4.99,0.06,7.36-0.25c1.26-0.17,3.99-0.58,7.66-1.45
			c1.02,0.44,2.11,0.76,3.25,0.96c0.27,0.05,1.7,0.29,3.84,0.52c11.79,1.26,21.23-0.11,28.05-4.07c3.83-2.22,7.3-4.7,10.42-7.43
			c1.24,0.09,2.5,0.04,3.75-0.18c0.96-0.17,4.4-0.85,8.37-2.74c6.49-3.08,11.27-7.85,13.82-13.8c1.67-3.88,4.14-11.9,1.98-22
			c-1.62-7.54-5.5-14.35-11.33-19.98c0.2,0.03,0.4,0.05,0.6,0.08c2.71,0.29,5.42-0.19,7.84-1.34c2.13-0.23,4.23-0.93,6.13-2.11
			c1.81-1.12,3.32-2.6,4.46-4.31c3.59-0.66,6.87-2.66,9.11-5.7c3.15-1.61,5.71-4.36,7.03-7.86c0.8-2.12,1.07-4.33,0.88-6.47
			c0.34-0.34,0.67-0.69,0.97-1.05c3.57-0.86,6.77-3.06,8.85-6.28c0.86-1.34,1.48-2.78,1.87-4.26c1.01-1.13,1.86-2.43,2.5-3.86
			c0.69-1.56,1.09-3.19,1.21-4.83c2.01-2.8,3-6.28,2.69-9.83C692.19,387.27,691.78,385.71,691.14,384.27z M672.02,394.18l3.07,3.47
			l-7.6,0.11l4.32,5.99l-10.71-2.17l2.92,7.02l-5.82-2.6l2.42,7.41l-6.04-2.26c0,0,3.23,4.17,3.8,5.52l-6.7-1.6l8.04,5.27
			l-9.63-1.35l4.52,5.7l-10.56-2.59l1.06,8.85l-9.22-6.05l4.5,7.39l-7.79-2.38l-6.41-2.52l-0.28,5.42l-7.68-1.89l-1.85,5.9
			l-3.96-2.11l-3.76,1.66l-5.79,1.06l-3.28-2.4l-2.84,4.69l-3.62-1.89l-4.08,3.63l-4.69-2.84l-3.02,3.12l-3-1.72l-1.9,2.15
			l-4.75-2.39l-4.54,2.12l-53.28-10.93c0,0,23.62,12.1,32.82,15.47c1.5,0.55,3.33,0.91,5.39,1.13c10.53,1.12,26.95-1.57,35.19-2.67
			c3.52-0.47,7.68-0.58,12.15-0.11c8.03,0.86,17.08,3.61,25.3,9.63c12.79,9.36,12.21,22.09,9.44,28.53
			c-2.77,6.44-11.26,7.91-11.26,7.91s5.04-3.25,7.48-9.17c2.43-5.93-5.03-10.83-5.03-10.83c-2.75,16.4-14,25.04-21.46,29.37
			c-5.4,3.13-14.52,2.67-19.16,2.18c-1.77-0.19-2.89-0.38-2.89-0.38s13.04-2.12,19.6-5.83c6.56-3.71,5.24-15.01,5.24-15.01
			c-8.46,13.63-30.59,19.98-40.15,21.24c-2.03,0.27-4.05,0.24-5.98,0.03c-7.16-0.76-13.02-4-13.02-4c1.96,1.01,4.51,1.54,6.94,1.8
			c4.08,0.44,7.82,0.12,7.82,0.12c-0.21,0-0.42-0.02-0.63-0.04c-5.85-0.62-12.05-8.76-12.05-8.76c3.34,1.92,6.6,2.89,9.73,3.22
			c7.91,0.84,14.92-2.43,19.99-4.85c7.07-3.37,5.2-12.37,3.67-13.37c-0.16-0.11-0.4-0.17-0.7-0.2c-2.53-0.27-9.75,1.92-17.69,3.44
			c-7.01,1.34-16.75,3.16-23.44,2.44c-1.78-0.19-3.35-0.56-4.59-1.17c-5.88-2.88-27.67-11.11-37.71-15.04
			c-10.05-3.92-27.94-17.36-27.94-17.36l-42.2,22.02c-4.83,2.52-9.84,4.69-14.99,6.49l-47.07,16.46c-4.06,1.42-8.19,2.61-12.38,3.56
			c-8.14,1.84-21.64,4.86-25.33,5.42c-5.4,0.83,2.5,10.62,2.5,10.62c22.02,24.16,23.53,37.77,23.53,37.77
			c12.05,0.87,36.66-14.06,42.54-18.21c3.91-2.76,9.69-2.67,13.14-2.31c1.74,0.19,2.89,0.44,2.89,0.44l-2.96,3.4
			c0,0,2.07-1.45,5.1-1.13c1.84,0.2,4.04,1.05,6.34,3.29c6.07,5.92-1.64,14.7-1.64,14.7c0.89-3.7-1.22-5.17-1.22-5.17
			c-2.45-2.89-5.1-4.16-7.69-4.43c-7.7-0.82-14.92,7.07-14.92,7.07s3.62,1.89,9.94,4.82c2.52,1.17,4.35,1.74,6.13,1.93
			c2.68,0.29,5.22-0.3,9.76-0.97c2.11-0.31,3.74-0.37,5.12-0.22c3.56,0.38,5.46,2.11,9.49,4.23c5.59,2.94,5,6.44,8.35,9.85
			c3.35,3.41,9.16,6.01,8.38,7.2c-0.78,1.19-1.08,13.86-5.85,24.08c-4.77,10.22-14.78,10.69-14.78,10.69s6.88-5.68,10.66-12.91
			c3.78-7.23-5.24-15.33-5.24-15.33c-3.44,14.49-13.48,26.84-26.89,33.58c-4.68,2.35-8.99,2.82-12.61,2.44
			c-6.74-0.72-11.11-4.4-11.11-4.4c0.11,0.02,0.23,0.04,0.37,0.06c3.77,0.4,16.53-2.33,21.88-5.85c5.55-3.64,8.52-13.35,7.86-18.63
			c-0.66-5.29-4.48-4.64-8.94-5.62c-0.24-0.05-0.48-0.09-0.72-0.12c-4.17-0.45-8.08,3.13-13.77,4.45
			c-6.01,1.4-15.43-0.17-16.49,0.35c-1.07,0.51,1.39,5.28-0.92,5.47c-0.13,0.01-0.25,0.01-0.37,0c-1.99-0.21-2.42-3.52-2.42-3.52
			c-3.97,4.19-42.5,8.53-42.5,8.53s9.5,5.5,48.02,23.01c8.02,3.65,16.41,5.67,24.77,6.56c31.77,3.39,63.05-9.62,71.68-12.22
			l3.65-5.56l7.67-0.43l3.26-0.31c0,0,0,0,0,0l6.6-10.55l12.83-2.35l0.15-11.31l10.78-3.12l-2.18-9.99l7.91-4.09l-4.38-11.56
			l8.71-10.47l-8.12-10.68l5.42-9.37l-13.39-6.78l8.43-5.14l-20.82-9.54l3.61-3.28l-11.04-3.42l-1.56-4.84l-6.18,3.04l-5.27-4.46
			l-7.22,1.36l-4.64-2.8l-3.34,5.82l-7.28-2.23l-3.25,6.24l-5.86-0.69l1.28,5.09l-4.4,0.69l3.05,3.4l-3.99,4.1c0,0,0,0,0,0
			l3.24,3.54l-1.28,4.93c0.81,1.61,1.91,3.03,3.37,4.09c2.02,1.47,3.71,2.13,5.16,2.28c0.26,0.03,0.5,0.04,0.74,0.04
			c0.5-0.11,0.99-0.18,1.45-0.19c2.13-0.56,3.65-2.21,5.02-3.39c0.25-0.28,0.51-0.55,0.8-0.83c0.82-1.17,0.79-2.79,0.29-4.33
			c-0.04-0.11-0.08-0.23-0.12-0.35c-0.54-1.47-1.48-2.82-2.45-3.56c-0.46-0.35-1.01-0.55-1.58-0.61c-0.11-0.01-0.23-0.02-0.35-0.02
			c-0.07,0-0.14,0-0.21,0.01c-0.07,0-0.14,0.01-0.21,0.02c-0.18,0.02-0.37,0.06-0.56,0.1c-0.02,0-0.04,0.01-0.05,0.01
			c-0.04,0.01-0.08,0.03-0.12,0.04c-1.07,0.35-1.95,1.19-2.08,2.42c-0.03,0.74,0.17,1.45,0.32,1.87c0.05,0.12,0.09,0.24,0.15,0.36
			c0,0,0,0,0,0c0.01,0.01,1.36,2.31,2.83,2.47c0.37,0.04,0.75-0.06,1.12-0.36v0c1.83-1.52-0.73-3.17-0.73-3.17
			c0.06,0,0.11,0,0.17,0.01c1.05,0.11,2.07,1.41,1.84,2.3c-0.25,0.93-1.5,2.29-2.15,2.72c-0.28,0.19-1.18,0.57-2.37,0.44
			c-1.53-0.16-3.56-1.18-5.37-4.55c-3.22-6,3.92-10.78,8.87-11.3c0.39-0.04,0.76-0.04,1.12,0c4.2,0.45,6.32,5.86,6.32,5.86
			l-2.01,3.98c0,0,0,0,0,0l4.83,5.03l-4.63,3.76l-1.23,6.84l-6.76-1.16l-3.23,4.19l-8.41-6c-0.01,0-0.02,0-0.03-0.01l-6.29,1.08
			l-2.01-9.7l-3.51-2.3l-2.99-5.36l6.43-5.37l-4.33-7.35l9.54-7.08l0.13-5.01l8.73-0.33l0.99-2.27l5.03-4.71l6.81,0.34l2.02-1.23
			l4.12,2.16l0,0c0,0,0,0,0,0l1.4-4.24l14.68,5.8l0.28-2.51l11.1-6.22l4.5,11.98l8.65-7.33l0.75,2.25l9.64,1.07l-6.21,11.4
			l20.47,3.21l-2.99,7.89l12.41,16.88l0.45,10.13l5.39,7.36l-1.84,6.62l2.85,11.52l-4.61,4.81l5.21,9.25l-9.22,11.79l-0.69,13.57
			l-11.01,4.25l-5.24,14.4l-5.75-1.1c-0.09,0.11-0.18,0.23-0.27,0.34l3,7.03l-11.32,3.11l-1.86,4.2l-4.27,2.48
			c-0.71,0.75-1.43,1.5-2.15,2.23l-3.82,6.05l-2.46-0.06c-41.1,36.89-92.53,40.85-92.53,40.85c-8.23,0.11-16.19-0.28-23.89-1.1
			c-85.28-9.09-137.75-70.95-153.83-94.03c-17.54-25.16-17.06-58.35-18.51-77.51c-1.45-19.16,1.79-34.16,4.85-40.69
			c6.9-14.74,18.62-25.82,17.74-31.69c-0.11-0.74-0.56-1.1-1.26-1.18c-4.89-0.52-22.02,13.02-22.02,13.02l26.54-34l-26.57,14.41
			L237.26,403l11.99-11.07l-28.37,13.27l28.36-23.24l-25.14,7.79l31.77-16.78l-36.31,11.5l49.95-22l-45.49,8.54l30.8-13.64
			l27.78-8.49l-35.94-0.16l48.07-11.76l-29.35-1.78l60.54-3.48l-45.67-8.95l30.06-1.29L296.09,315l24.64-1.07l-19.49-7.15
			l43.69,4.82l-21.76-7.72l42.82,1.51l-32.76-13.15l41.62,4.53l-23.33-12.98l61.93,1.44l-19.61-7.11l-23.46-7.03l46.78,2.2
			l-26.09-10.56l45.49,7.26l-35.88-16.72l48.86,15.06c-6.04-2.26-19.76-12.59-19.76-12.59c13.27,7.25,31.95,10.41,31.95,10.41
			l-35.47-20.24L479.69,270l-32.61-21.4l49.51,22.78l-22.3-15.08l32.7,16.58l-10.3-11.75l17.49,10.3l-3.09-6.39l7.22,2.31
			c0,0-0.94-5.96,1.82-12.4c2.77-6.44,6.42-17.09,7.04-23.96c0.36-3.98,1.62-12.52,2.61-19.01c0.53-3.49,3.71-5.75,7-5.4
			c0.63,0.07,1.26,0.23,1.88,0.49c8.49,3.66,19.51,8.02,31.21,13.51c15.59,7.32,19.61,18.21,23.72,25.27
			c4.11,7.06,11.31,6.45,15.95,10.47c4.65,4.02,11.25,30.2,18.97,37.69c3.85,3.74,9.46,6.86,12.69,11c3.23,4.14,4.07,9.3,7.64,13.51
			c10.57,12.44,15.08,21.08,16.98,25.9c1.39,3.52,3.28,6.83,5.67,9.77c2.22,2.73,4.56,5.73,5.08,6.79c1.03,2.13-3.79,5.77-3.79,5.77
			c3.9,2.56,0.61,6.47-0.95,8.84c-1.56,2.38-4.76,3.19-4.76,3.19l10.09,1.28l-7.4,3.88l5.98,1.25l-3.92,2.28l5.99,2.71
			L672.02,394.18z"/>
		<g>
			<g>
				<path d="M634.16,482.95c2.77-6.44,3.35-19.16-9.44-28.53c-12.79-9.36-27.61-10.83-37.45-9.52s-31.38,4.9-40.58,1.54
					c-9.2-3.37-32.82-15.47-32.82-15.47l53.28,10.93l4.54-2.12l4.75,2.39l1.9-2.15l3,1.72l3.02-3.12l4.69,2.84l4.08-3.63l3.62,1.89
					l2.84-4.69l3.28,2.4l5.79-1.06l3.76-1.66l3.96,2.11l1.85-5.9l7.68,1.89l0.28-5.42l6.41,2.52l7.79,2.38l-4.5-7.39l9.22,6.05
					l-1.06-8.85l10.56,2.59l-4.52-5.7l9.63,1.35l-8.04-5.27l6.7,1.6c-0.57-1.35-3.8-5.52-3.8-5.52l6.04,2.26l-2.42-7.41l5.82,2.6
					l-2.92-7.02l10.71,2.17l-4.32-5.99l7.6-0.11l-3.07-3.47l5.77-3.98l-5.99-2.71l3.92-2.28l-5.98-1.25l7.4-3.88l-10.09-1.28
					c0,0,3.2-0.81,4.76-3.19c1.56-2.38,4.85-6.28,0.95-8.84c0,0,4.81-3.64,3.79-5.77c-0.51-1.07-2.86-4.06-5.08-6.79
					c-2.39-2.94-4.28-6.25-5.67-9.77c-1.9-4.83-6.41-13.47-16.98-25.9c-3.58-4.21-4.42-9.37-7.64-13.51
					c-3.23-4.14-8.83-7.25-12.69-11c-7.71-7.49-14.32-33.67-18.97-37.69s-11.85-3.4-15.95-10.47c-4.1-7.06-8.12-17.95-23.72-25.27
					c-11.7-5.49-22.71-9.85-31.21-13.51c-3.86-1.66-8.24,0.75-8.88,4.9c-0.99,6.49-2.25,15.03-2.61,19.01
					c-0.63,6.87-4.28,17.53-7.04,23.96c-2.77,6.44-1.82,12.4-1.82,12.4l-7.22-2.31l3.09,6.39l-17.49-10.3l10.3,11.75l-32.7-16.58
					l22.3,15.08l-49.51-22.77l32.61,21.4l-53.42-24.09l35.47,20.24c0,0-18.68-3.16-31.95-10.41c0,0,13.72,10.33,19.76,12.59
					l-48.86-15.06L436.56,270l-45.49-7.26l26.08,10.56l-46.78-2.2l23.46,7.03l19.61,7.11l-61.93-1.44l23.33,12.98l-41.62-4.53
					l32.76,13.15l-42.82-1.51l21.76,7.72l-43.69-4.82l19.49,7.15L296.09,315l14.22,6.45l-30.06,1.29l45.67,8.95l-60.55,3.48
					l29.35,1.78l-48.07,11.76l35.94,0.16l-27.78,8.49l-30.8,13.64l45.49-8.54l-49.95,22l36.31-11.5l-31.77,16.78l25.14-7.79
					l-28.36,23.24l28.37-13.27L237.26,403l-26.48,26.48l26.57-14.41l-26.54,34c0,0,22.4-17.7,23.29-11.84
					c0.89,5.86-10.83,16.95-17.74,31.69c-3.06,6.54-6.3,21.54-4.85,40.69c1.45,19.16,0.97,52.35,18.51,77.51
					c17.54,25.16,78.32,96.42,177.73,95.13c0,0,51.43-3.96,92.53-40.85l2.46,0.06l3.82-6.05c0.72-0.73,1.44-1.47,2.15-2.23
					l4.27-2.48l1.85-4.2l11.32-3.11l-3-7.03c0.09-0.11,0.18-0.23,0.27-0.34l5.74,1.1l5.24-14.4l11.01-4.25l0.69-13.57l9.22-11.79
					l-5.21-9.25l4.61-4.81l-2.84-11.52l1.84-6.62l-5.39-7.36l-0.45-10.13l-12.41-16.88l2.99-7.89l-20.47-3.21l6.21-11.4l-9.64-1.07
					l-0.75-2.25l-8.65,7.33l-4.5-11.98l-11.1,6.22l-0.28,2.51l-14.68-5.8l-1.39,4.24c0,0,0,0,0,0l-4.12-2.16l-2.02,1.22l-6.81-0.34
					l-5.03,4.71l-0.99,2.27l-8.73,0.33l-0.13,5.01l-9.54,7.08l4.33,7.35l-6.43,5.37l2.99,5.36l3.51,2.3l2.01,9.7l6.29-1.08
					c0.01,0,0.02,0,0.03,0.01l8.41,6l3.23-4.19l6.76,1.16l1.23-6.84l4.63-3.76l-4.83-5.03c0,0,0,0,0,0l2.01-3.98
					c0,0-2.5-6.37-7.45-5.86c-4.95,0.51-12.09,5.3-8.87,11.3c3.22,6,7.1,4.54,7.74,4.11c0.64-0.43,1.9-1.79,2.15-2.72
					c0.25-0.93-0.9-2.32-2.01-2.3c0,0,2.56,1.65,0.73,3.17l0,0l0,0l0,0c-1.83,1.51-3.95-2.1-3.96-2.11c0,0,0,0,0,0
					c-0.06-0.12-0.1-0.24-0.15-0.36c-0.15-0.41-0.36-1.13-0.32-1.87c0.13-1.23,1.01-2.08,2.08-2.42c0.04-0.01,0.08-0.03,0.12-0.04
					c0.02-0.01,0.04-0.01,0.05-0.01c0.19-0.05,0.38-0.08,0.56-0.1c0.07-0.01,0.14-0.01,0.22-0.02c0.07-0.01,0.14-0.01,0.21-0.01
					c0.69,0.01,1.37,0.21,1.93,0.63c0.97,0.74,1.91,2.09,2.45,3.56c0.03,0.12,0.07,0.23,0.12,0.35c0.5,1.54,0.53,3.16-0.29,4.33
					c-0.29,0.27-0.55,0.55-0.8,0.83c-1.37,1.17-2.89,2.82-5.02,3.39c-0.46,0.01-0.95,0.08-1.45,0.19c-1.61,0.02-3.52-0.59-5.91-2.32
					c-1.46-1.06-2.56-2.48-3.37-4.09l1.28-4.93l-3.24-3.54c0,0,0,0,0,0l3.99-4.1l-3.05-3.4l0,0l4.4-0.69l-1.28-5.09l5.86,0.69
					l3.25-6.24l7.28,2.23l3.34-5.82l4.64,2.8l7.22-1.36l5.27,4.46l6.18-3.04l1.56,4.84l11.04,3.42l-3.61,3.28l20.82,9.54l-8.43,5.14
					l13.39,6.78l-5.42,9.37l8.12,10.68l-8.71,10.47l4.38,11.56l-7.91,4.09l2.18,9.99l-10.78,3.12l-0.15,11.31l-12.83,2.35
					l-6.6,10.55c0,0,0,0,0,0l-3.26,0.31l-7.67,0.43l-3.65,5.56l0,0l0,0c-10.9,3.29-57.93,23.17-96.45,5.66
					c-38.52-17.51-48.02-23.01-48.02-23.01s38.53-4.33,42.5-8.53c0,0,0.48,3.71,2.78,3.53c2.31-0.19-0.15-4.95,0.92-5.47
					c1.07-0.51,10.48,1.05,16.49-0.35c6.01-1.4,10.04-5.31,14.49-4.33c4.45,0.98,8.28,0.33,8.94,5.62
					c0.66,5.29-2.31,14.99-7.86,18.63c-5.55,3.64-19.04,6.44-22.25,5.79c0,0,10.31,8.71,23.71,1.97
					c13.4-6.74,23.45-19.09,26.89-33.58c0,0,9.01,8.1,5.23,15.33c-3.78,7.23-10.66,12.91-10.66,12.91s10.02-0.47,14.78-10.69
					c4.77-10.22,5.07-22.89,5.85-24.08c0.78-1.19-5.04-3.79-8.38-7.2c-3.35-3.41-2.75-6.9-8.35-9.85c-5.59-2.94-7.07-5.13-14.61-4
					c-7.54,1.12-9.56,1.98-15.88-0.95c-6.33-2.94-9.94-4.82-9.94-4.82s12.9-14.11,22.61-2.64c0,0,2.11,1.47,1.22,5.17
					c0,0,7.7-8.78,1.64-14.7c-6.07-5.92-11.44-2.17-11.44-2.17l2.96-3.4c0,0-10.15-2.29-16.03,1.86
					c-5.88,4.15-30.48,19.08-42.54,18.21c0,0-1.51-13.61-23.53-37.77c0,0-7.9-9.79-2.5-10.62c3.7-0.57,17.19-3.58,25.33-5.42
					c4.19-0.95,8.32-2.14,12.38-3.56l47.06-16.46c5.15-1.8,10.15-3.97,14.99-6.49l42.2-22.02c0,0,17.89,13.44,27.94,17.36
					c10.05,3.92,31.84,12.15,37.71,15.04c5.88,2.88,19.14,0.42,28.03-1.27c8.88-1.7,16.86-4.23,18.38-3.23
					c1.53,1,3.39,10-3.67,13.37c-7.07,3.37-17.9,8.41-29.71,1.62c0,0,6.65,8.73,12.67,8.8c0,0-9.51,0.8-14.76-1.92
					c0,0,9.44,5.22,19,3.97c9.56-1.25,31.69-7.61,40.15-21.23c0,0,1.32,11.31-5.24,15.01c-6.56,3.71-19.6,5.83-19.6,5.83
					s14.59,2.54,22.05-1.8c7.46-4.33,18.71-12.97,21.46-29.37c0,0,7.47,4.9,5.03,10.83c-2.43,5.93-7.48,9.17-7.48,9.17
					S631.39,489.38,634.16,482.95z"/>
			</g>
			<g>
				<path d="M491.33,265.73"/>
			</g>
			<g>
				<path d="M650.54,429.12"/>
			</g>
			<g>
				<path d="M633.66,460.04"/>
			</g>
			<g>
				<g>
					<path class="st0" d="M646.81,321.07c0,0-7.65-6.47-7.61-9.12c0.04-2.65-3.33-8.25-12.92-12.12
						c-9.6-3.87-13.05-21.18-13.91-23.94c-0.86-2.75-2.47-6.23-2.47-6.23l-1.78,2.72l-3.21-8.42l-0.07,5.29l-6.33-10.71
						c0,0,5.56,14.09,9.82,18.34c0,0-11.69-13.26-14.55-18.53S581,236.38,581,236.38l7.45,17.51c0,0-10.81-16.08-13.48-18.31
						s-0.31,3.44,0.34,7.99c0.65,4.56-2.27,5.31,2.96,11.77c5.23,6.46,6.85,5.1,11.58,13.06c4.73,7.96,6.02,15.36,13.32,20.64
						l9.28,6.33c0,0-8.97-2.97-18.51-13.6c-9.54-10.63-4.58-10.04-10.88-17.09c-6.3-7.05-12.49-15-12.46-18.37
						c0.03-3.38-3.42-5.89-7.05-9.24c-3.63-3.35-4.02-3.12-5.22-6.1s-0.44-6.36-3.95-9.15s-5.71-2.77-5.71-2.77l6.67,11.66
						l-5.14-2.89c0,0,3.96,2.84,5.9,6.54s4.78,6.78,6.79,12.22c2.01,5.45,0.88,4.22,3.79,9.77c2.91,5.55,6.86,6.93,10.24,14
						c3.37,7.07,5.12,7,6.06,12.96c0,0-3.1-7.86-9.73-13.66c-6.63-5.81-3.47-4.7-5.63-8.07c-2.16-3.36-6.25-7.5-6.38-10.26
						c-0.13-2.76-3.88-6.67-4.28-7.91c-0.4-1.24,0.62-0.57-1.14-1.96c-1.76-1.39-9.95-5.56-11.54-7.57s-4.83-5.59-4.83-5.59
						s1.1,3.88,3.49,7.63c2.39,3.75,5.67,6.15,9.13,8.66c3.45,2.51,5.5,2.39,6.33,5.37c0.83,2.97,1.31,7.41,5.27,9.52
						c0,0-4.06-1.17-6.71-7.32c0,0-2.59-2.92-6.16-5.25c-3.56-2.34-9.07-8.38-10.49-11.01c-1.43-2.64-4.65-4.75-4.65-4.75
						s0.83,6.13,5.08,9.65s11.04,8.7,12.58,11.9c0,0-3.8-4.19-7.47-4.9c-3.66-0.71-10.14-1.56-10.14-1.56s4.54,5.65,7.54,6.64
						l-6.15-1.36c0,0-0.67,1.74,2.44,3.3c3.11,1.56,4.34-0.31,9.5,4.78s4.21,5.43,8.45,8.95c4.25,3.52,3.63,3.35,6.57,5.53
						c0,0-8.25-4.44-14.42-9.46s-10.46-5.17-12.77-5.71c-2.31-0.54-3.89-1.09-4.4-1.43c-0.51-0.33,6.26,8.96,6.26,8.96l-9.78-5.45
						c0,0,7.83,8.78,8.96,8.55c1.12-0.23-7.32-0.68-12.13-3.35c0,0,3.79,10.5,7.74,11.88c3.95,1.38,3.26-1.26,6.37,1.75
						s3.87,4.47,5.44,4.66c1.58,0.19-1.09-2.78,4.34,0.79c5.43,3.56,4.87,3.68,6.51,5.24c0,0-3.44-0.31-7.28-2.22
						s-5.56-5.95-9.33-6.12c-3.77-0.17-9.01-0.7-9.01-0.7l6.46,6.06c0,0-2.5-2.49-5.02-1.23c-2.52,1.26-7.57-3.27-7.57-3.27
						s2.15,6.75,5.46,10.38c3.31,3.63,6.8,4.22,8.16,4.38s3.09-0.64,4.62,0.36c1.53,1,2.22,2.91-0.66,2.48
						c-2.87-0.43-11.52-4.64-14.12-5.86c-2.6-1.22-5.61-5.14-5.64-1.76c-0.03,3.38-0.05,5.31,3.86,6.17
						c3.91,0.87,6.67,0.73,7.34,1.18c0.68,0.45-9.9,1.03-9.9,1.03s1.51,6.58,3.89,8.87c2.38,2.29,3.19,5.49,4.56,7.85
						c1.37,2.35,3.59,5.27,3.59,5.27l0.22-8.11l3.76,13.88l0.7-19.93l0.93,15.45l0.09,1.49l10.06-17.19l-9.26,19.66l16.11-21.23
						l-9.34,15.72l10.05-10.88c0,0-18.79,25.3-20.55,30.21c-1.77,4.91-0.33,9.01-0.33,9.01l18.06-31.6l-15.88,34l14.81-22.57
						c0,0-14.41,27.69-14.4,28.42c0.01,0.73,1.78,12.09,8.85,17.22s12.11,8.19,21.11,7.78s35.07-8.31,49.09-7.85
						s35.81,1.65,37.72,0.96s8.98-3.33-4.93-4.69c-13.91-1.36-44.65-1.87-50.35-3.18c-5.7-1.31-3.35-4.14-13.66-5.08
						s-20.06,5.04-26.6,3.91c-6.54-1.13-14.26-3.05-16.38-6.86c-2.11-3.81,0.15-10.58,6.4-10.12c0,0-8.18,5.8-3.42,8.92
						s13.37,3.67,14.32,3.33c0.95-0.34,14.65-6.41,17.85-6.49c3.21-0.08,4.23,0.59,8.69,3.03c4.47,2.44,6.89,3.55,12.47,4.3
						c5.58,0.75,48.61,3.98,48.61,3.98s14.89,6.53,17.11,5c2.22-1.54,7.66-5.01,1.96-6.32c-5.7-1.31-59.9-8.23-59.9-8.23
						s-18.71-2.57-20.52-3.51c-1.81-0.94-10.54-2.06-16.16-0.16c-5.62,1.9-10.04,4.58-12.91,4.88c-2.87,0.3-8.17-0.5-9.64-1.96
						c-1.47-1.45-2.34-4.94,1.04-3.44c3.39,1.5,2.6,1.95,8.34,0.61c5.73-1.34,4.06-3.4,10.6-4.21s20.05-0.68,28.33,1.11
						c8.29,1.8,14.83,2.93,24.01,4.1c9.18,1.17,31.46,6.07,36.58,6.04c5.12-0.04,8.16-0.23,9.74,0.32s3.88-1.84,1.04-5.28
						l-0.83,2.74c0,0-3.59-5.27-3.54-7.18s-3.97-11.34-8-15.93C653.65,332.85,646.81,321.07,646.81,321.07z"/>
				</g>
				<g>
					<ellipse transform="matrix(0.5486 -0.8361 0.8361 0.5486 0.423 650.6699)" cx="602.8" cy="324.94" rx="18.55" ry="19.67"/>
				</g>
				<g>
					<path d="M637.05,353.15c0,0,18.55,7.8,23,4.9c4.45-2.9,4.12-8.44-5.95-5.36c0,0,4.59,0.22,4.32,1.74
						C658.16,355.95,645.94,355.7,637.05,353.15z"/>
				</g>
				<g>
					<polygon points="637.63,327.67 660.08,349.69 648.19,339.7 					"/>
				</g>
				<g>
					<path d="M583.41,341.86c-2.64,0.69-11.04-0.93-15.59,0.45c-4.55,1.38-6.55,4.44-10.82,5.76c-4.27,1.33-7.65,1.29-8.65,2.09
						c0,0,7.94,0.84,11.7-1.55c3.75-2.39,6.28-3.65,8.64-4.29C571.04,343.7,583.41,341.86,583.41,341.86z"/>
				</g>
				<g>
					<polygon points="581.52,344.75 573.13,345.31 577.93,346.52 					"/>
				</g>
				<g>
					<path d="M568.59,347.8c0,0-2.25,0.1-4.89,1.53c-2.64,1.43-5.05,2.51-8.43,2.48c0,0,2.69,1.29,5.47-0.2c2.79-1.49,3.62-2,3.62-2
						S567.18,347.98,568.59,347.8z"/>
				</g>
				<g>
					<path d="M594.74,375.27c0,0-10.22,3.73-14.61,3.03c-4.4-0.7-13.42-3.22-13.42-3.22s8.65,4.95,12.93,5.08
						C583.91,380.31,594.74,375.27,594.74,375.27z"/>
				</g>
				<g>
					<path d="M574.11,370.84c0,0-18.29,1.23-24.34-2.5c0,0,4.8,3.8,10.41,3.92C567.07,372.41,574.11,370.84,574.11,370.84z"/>
				</g>
				<g>
					<path d="M566.04,276.57c0,0,4.86,2.22,5.78,5.25c0.92,3.03,0.92,3.03,0.92,3.03s-4.45-2.11-5.2-3.17
						C565.97,279.47,566.04,276.57,566.04,276.57z"/>
				</g>
				<g>
					<path d="M566.48,270.03c0,0,3.09,1.41,3.67,3.33c0.59,1.93,0.59,1.93,0.59,1.93s-2.83-1.34-3.3-2.01
						C566.43,271.87,566.48,270.03,566.48,270.03z"/>
				</g>
				<g>
					<path d="M559.74,235.96c0,0,6.63,5.44,8.6,9.65c1.97,4.21,5.33,7.14,6.03,10.51c0.7,3.37,1.86,5.77,3.56,8.16
						c0,0-3.66-4.41-7.7-7.97c-4.04-3.56-1.99-6.4-3.23-9.22C565.75,244.28,559.74,235.96,559.74,235.96z"/>
				</g>
				<g>
					<path d="M608.47,284.33c0,0,1.71-2.33-1.73-5.14c0,0-1.42,1.8-0.78,3.5C606.62,284.38,608.47,284.33,608.47,284.33z"/>
				</g>
				<g>
					<path d="M590.26,258.17l3.1,2.03c0,0,4.65,7.06,5.39,9.54c0,0-6.09-6.54-7.74-8.18S590.26,258.17,590.26,258.17z"/>
				</g>
				<g>
					<path d="M584.52,253.13c0,0-5.22-12.35-7.7-13.24S584.52,253.13,584.52,253.13z"/>
				</g>
				<g>
					<path d="M585.66,259.71c0,0-3.08-5.3-4.25-4.34C580.24,256.33,585.66,259.71,585.66,259.71z"/>
				</g>
				<g>
					<path d="M588.21,278.86c0,0,1.09-6.38-2.83-5.68C581.46,273.89,588.21,278.86,588.21,278.86z"/>
				</g>
				<g>
					<path d="M563.11,264.94c0,0-2.24-6.57-4.72-4.74S563.11,264.94,563.11,264.94z"/>
				</g>
				<g>
					<path d="M552.33,256.68c-0.63-0.14-4.65-3.46-6.23-2.43C544.51,255.28,552.33,256.68,552.33,256.68z"/>
				</g>
				<g>
					<path d="M543.41,266.94c0,0,8.4,1.91,7.15,3.8C549.32,272.64,543.41,266.94,543.41,266.94z"/>
				</g>
				<g>
					<path d="M541.34,275.96c0,0-4.15-6.18-5.48-3.6C534.52,274.95,541.34,275.96,541.34,275.96z"/>
				</g>
				<g>
					<path d="M560.27,277.35c0,0-4.36-6.03-5.64-4.14C553.35,275.1,560.27,277.35,560.27,277.35z"/>
				</g>
				<g>
					<path d="M551.77,278.62c0,0-6.35-9.43-9.67-6.35C538.78,275.36,551.77,278.62,551.77,278.62z"/>
				</g>
				<g>
					<path d="M565.39,287.56c0,0-5.55-5.24-7-3.02C556.94,286.75,565.39,287.56,565.39,287.56z"/>
				</g>
				<g>
					<path d="M565.14,293.12c0,0-5.24-5.15-6.45-2.19C557.47,293.89,565.14,293.12,565.14,293.12z"/>
				</g>
				<g>
					<polygon points="573.21,301.72 569,300 567.41,301.5 570.31,301.61 					"/>
				</g>
				<g>
					<path d="M549.28,296.24c0,0-4.58-5.27-5.6-1.69C542.67,298.14,549.28,296.24,549.28,296.24z"/>
				</g>
				<g>
					<polygon points="539.28,287.05 544.44,290.44 540.97,290.1 					"/>
				</g>
				<g>
					<path d="M537.79,291.42c0,0-4.41-4.47-5.89-2.41S537.79,291.42,537.79,291.42z"/>
				</g>
				<g>
					<path d="M532.55,304.12c0,0-3.7-1.21-3.83-0.08C528.59,305.16,532.55,304.12,532.55,304.12z"/>
				</g>
				<g>
					<path d="M556.44,300.34c0,0-3.46-2.73-4.44-0.88C551.02,301.31,556.44,300.34,556.44,300.34z"/>
				</g>
				<g>
					
						<ellipse transform="matrix(0.5486 -0.8361 0.8361 0.5486 3.0391 653.6415)" class="st0" cx="606.86" cy="324.01" rx="6.99" ry="8.45"/>
				</g>
				<g>
					<path d="M616.34,307.39c0,0,9.03,2.89,10.51,13.21c1.48,10.32-8.2,17.31-8.2,17.31s9.26-9.7,6.16-18.45
						S616.34,307.39,616.34,307.39z"/>
				</g>
				<g>
					<path d="M628.18,328.75c0,0-5.3,11.82-18.21,14.09C609.97,342.84,621.99,344.48,628.18,328.75z"/>
				</g>
				<g>
					<path d="M590.67,305.27c0,0-8.01-0.92-13.75,7.45C576.92,312.72,584.54,305.2,590.67,305.27z"/>
				</g>
				<g>
					<path d="M589.07,307.71c0,0-8.04,1.89-12.25,14.42C576.82,322.12,581.62,312.4,589.07,307.71z"/>
				</g>
				<g>
					<path d="M577.18,314.55c0,0-7.4,12.02,2.12,20.81C579.3,335.36,571.79,328.49,577.18,314.55z"/>
				</g>
				<g>
					<path d="M581.46,321.07c0,0-2.98,6.18,2.14,13.13C583.6,334.19,579.69,325.97,581.46,321.07z"/>
				</g>
				<g>
					<path d="M585.25,333.81c0,0,1.76,6.8,12.5,10.14C597.74,343.94,589.39,340.05,585.25,333.81z"/>
				</g>
				<g>
					<path d="M606.97,317.4c0,0-2.55-0.9-4.55,1.38C602.42,318.79,605.26,316.96,606.97,317.4z"/>
				</g>
				<g>
					<path d="M604.54,317.06c0,0-2.68,0.36-3.42,3.3C601.12,320.36,602.81,317.45,604.54,317.06z"/>
				</g>
				<g>
					<path d="M605.62,330.69c0,0,3.93,1.39,7.02-2.14C612.64,328.56,608.26,331.37,605.62,330.69z"/>
				</g>
				<g>
					<path d="M609.37,331.22c0,0,4.13-0.55,5.28-5.09C614.65,326.13,612.04,330.63,609.37,331.22z"/>
				</g>
				<g>
					<path class="st0" d="M601.59,309.15c0,0-6.1-2.15-10.89,3.31C590.7,312.47,597.49,308.1,601.59,309.15z"/>
				</g>
				<g>
					<path class="st0" d="M595.77,308.33c0,0-6.42,0.85-8.2,7.9C587.57,316.23,591.64,309.25,595.77,308.33z"/>
				</g>
				<g>
					<path class="st0" d="M598.35,340.96c0,0,9.41,3.32,16.8-5.11C615.15,335.85,604.68,342.59,598.35,340.96z"/>
				</g>
				<g>
					<path class="st0" d="M607.33,342.23c0,0,9.9-1.32,12.64-12.18C619.98,330.04,613.71,340.8,607.33,342.23z"/>
				</g>
			</g>
			<g>
				<g>
					<path class="st0" d="M671.49,385.69l-2.37,2.09l4.51,2.93l-8.02,1.96l6.02,2.94l-6.86,0.84l2.27,4.31l-11.31-1.35l4.22,4.16
						l-5.96,0.16l3.78,4.79l-6.96-0.5l1.5,4.93l-6.32-1.72l5.15,6.29l-5.85-3.84l2.78,6.5l-8.18-4.09l2.1,10.12l-9.6-8.12l1.67,9.11
						l-8.27-5.43l1.89,4.33l-6.72-2.25l2.68,4.51l-7.07-2.27l-2.8,5.44l-2.58-2.24l-2,3.05l-4.58-3.01l-0.48,4.06l-5.6-3.67
						l-3.09,4.71l-6.69-2.39l-1.4,4.72l-4.83-2.26l-0.39,4.11l-4.88-2.47l-1.97,1.26l-3.42-0.06l-4.5,2.69l-57.63-11.23l57.53,9.16
						l4.36-3.15l5.07-0.86l7.56-5.78l-8.34,2.72l-2.72-1.96c0,0-14.91,4.96-19.77,4.87s-11.63-2.53-11.63-2.53l12.69-7.69
						l-44.99,1.98c0,0,41.06-2.37,48.59-6.9c0,0-17.14,0.59-24.96-0.54c-7.82-1.12-14.25-3.53-14.25-3.53s18.23-1.7,23.52-5.32
						c5.29-3.63,7.09-6.09,11.39-7.64c4.3-1.55,19.43-4,19.43-4s-18.65,1.97-26.06,4.93s-10.49,3.5-16.48,3.2s-5.83,0-10.15,2.99
						s-8.2,5-8.2,5s2.32-5.76,8.93-8.34c6.61-2.58,3.2-6.64,11.17-8.88c7.96-2.24,5.09,2.79,15.88,0.59
						c10.79-2.2,7.53-4.16,20.7-3.71s19.09-4.4,19.09-4.4s26.5-7.92,31.78-6.82c0,0-6.51,0.22-14.43,5.34c0,0,7.1-2.5,14-1.07
						c0,0-3.93,0.16-10.01,4.72c-6.09,4.56-17.96,17.71-41.87,18.05c0,0,22.09,4.3,42.79-13.62c20.7-17.91,35.82-8.54,35.82-8.54
						s-11.06-3.68-21.45,3.83s-29.15,25.06-40.49,25.81c0,0,8.81,2.5,41.93-23.28c0,0,2.88-2.72,6.83-3.47c0,0-4.48,1.55-9.56,10.41
						s-18.51,20.99-31.37,23.11c0,0,18.36-0.51,28.07-12.53c9.71-12.02,12.57-16.94,23.26-19.63c0,0-3.86,0.44-7.69,6.79
						c-3.84,6.34-7.63,13.89-15,18.14c0,0,7.19-1.3,19.23-17.98c0,0,3.84-6.4,11.14-6.71c0,0,9.15-1.46,11.46-3.04
						C664.82,386.93,671.49,385.69,671.49,385.69z"/>
				</g>
				<g>
					<path class="st0" d="M247.02,457.96c-1.99,2.02-2.95,4.83-3.67,7.58c-0.72,2.75-1.29,5.59-2.73,8.04
						c-1.43,2.44-3.62,4.33-5.43,6.5c-1.81,2.18-3.29,4.92-2.86,7.72c0.3,1.93,1.47,3.61,2.11,5.46c0.8,2.31,0.76,4.87,1.75,7.1
						c2.17,4.85,8.79,7.27,9.37,12.55c0.19,1.75-0.36,3.48-0.65,5.21c-0.49,3.03-0.09,6.35,1.78,8.79
						c3.36,4.39,10.31,4.8,13.51,9.31c3.47,4.89,1.04,12.52,5.08,16.95c1.5,1.65,3.64,2.52,5.55,3.66c4.56,2.73,7.99,7.27,9.37,12.4
						l0.83,3.47c-4.96,2.24-10.24,4.77-12.93,9.5c-2.31,4.06-2.27,9.05-1.51,13.65c1.43,8.73,5.92,17.74,14.08,21.17
						c-3.23-3.81-5.73-8.39-6.35-13.35c-0.63-4.96,0.82-10.31,4.45-13.74c3.63-3.43,9.55-4.49,13.82-1.9
						c-4.3,5.26-4.82,13.3-1.22,19.07c2.4,3.85,6.24,6.51,9.72,9.42c3.48,2.91,6.83,6.46,7.58,10.93c0.63,3.71-0.79,7.71-3.61,10.2
						c3.03,0.69,6.17,1.38,9.23,0.28c1.46-0.53,2.75-1.51,3.47-2.88c1.89-3.62-0.85-7.28-2.62-10.67c-1.31-2.53-2.14-5.3-2.42-8.14
						c-0.35-3.56,0.23-7.45,4.46-9.34c2.17-0.97,4.66-1.05,6.93-0.32c4.55,1.47,7.65,5.39,10.1,9.4c3.11,5.09,5.56,10.8,5.61,16.76
						c0.05,5.96-2.7,12.21-7.91,15.1c3.98,0.97,5.51,5.68,8.14,8.81c0.48,0.57,1.02,1.11,1.71,1.38c1.13,0.45,2.44,0.08,3.48-0.57
						c3.92-2.43,4.99-8.2,9.18-10.12c3.07-1.41,7.52-0.62,9.13-3.62c0.61-1.14,0.57-2.52,0.09-3.72c-0.86-2.16-2.68-3.55-4.28-5.12
						c-3.58-3.53-6.08-8.14-7.09-13.06l1.13-0.53c1.45,0.48,3.02,0.28,4.54,0.37c9.53,0.54,15.44,12,24.92,13.16
						c2.19,0.27,4.41-0.05,6.62-0.09c9.49-0.15,18.83,5.52,23.09,14.01c2.45-3.29,4.96-6.64,8.31-9c3.35-2.37,7.74-3.64,11.63-2.31
						c2.5,0.85,4.63,2.71,7.24,3.17c5.28,0.94,9.86-4.1,15.21-4.53c1.9-0.15,3.87,0.29,5.7-0.26c4.97-1.5,6.79-9.49,11.97-9.13
						c1.91,0.14,3.65,1.52,5.56,1.31c0.88-0.1,1.68-0.53,2.45-0.98c3.78-2.24,7.21-5.13,11.29-6.78s9.21-1.75,12.42,1.25
						c3.45,3.23,3.08,9.6-0.72,12.41l-0.64,0.93c-1.32,2.41-2.02,2.78-4.06,4.62c-2.04,1.84-4.92,2.98-7.57,2.24
						c-2.21-0.62-4.03-2.47-6.33-2.61c-2.43-0.15-4.56,1.69-5.84,3.77c-1.27,2.07-1.98,4.46-3.31,6.5
						c-0.44,0.67-0.98,1.34-1.74,1.61c-0.77,0.28-1.62,0.11-2.43,0.02c-4.7-0.56-9.62,1.53-12.48,5.3c-1.29,1.7-2.17,3.69-3.47,5.38
						c-1.3,1.69-3.22,3.14-5.36,3.05c-2.17-0.09-3.93-1.69-5.84-2.72c-4.86-2.61-11.51-1.21-14.9,3.14
						c-2.85,3.66-3.97,9.34-9.71,9.19c-2.48-0.07-4.82-1.21-6.54-3c-2.91-3.05-8.76-7.5-12.93-4.68c-2.84,1.92-3.16,6.29-6.01,8.19
						c-1.37,0.92-3.09,1.09-4.74,1.24c-2.89,0.26-5.94,0.49-8.55-0.77c-2.61-1.26-4.45-4.6-3.06-7.15l-1.47-2.93
						c-0.14,3.73-4.43,6.67-7.96,5.44c-5.16-1.79-5.61-9.16-9.7-12.78c-0.6-0.53-1.35-1-2.15-0.94c-1.07,0.08-1.83,1.02-2.56,1.8
						c-5.36,5.69-15.49,4.67-20.97-0.9c-3.13-3.19-5.05-7.51-8.55-10.3c-0.42-0.34-0.91-0.66-1.45-0.66
						c-0.72,0.01-1.29,0.59-1.83,1.07c-2.97,2.62-7.44,2.91-11.23,1.75c-3.78-1.16-7.04-3.56-10.22-5.92
						c-0.7-0.52-1.45-1.1-1.71-1.93c-0.61-1.93,1.56-3.47,2.78-5.08c1.43-1.89,1.61-4.64,0.45-6.7c-1.16-2.06-3.61-3.33-5.97-3.08
						c-1.9,0.2-3.59,1.26-5.42,1.83c-1.83,0.57-4.16,0.46-5.22-1.13c-0.77-1.15-0.63-2.71-1.35-3.88c-1.37-2.23-4.69-1.77-7.22-1.09
						s-5.95,0.89-7.04-1.49l-4.47-2.98c2.3-2.58,3.18-6.35,2.25-9.68s-3.63-6.11-6.93-7.13c-1.27-0.39-2.6-0.54-3.89-0.89
						c-3.5-0.96-6.38-3.39-9.15-5.75c-2.57-2.2-5.4-5.01-4.93-8.37c0.29-2.07,1.84-3.82,1.58-6.07c-0.09-0.76-0.47-1.49-1.13-1.89
						c-2.34-1.44-4.57,2.37-6.68,1.2c-0.85-0.47-1.15-1.52-0.92-2.45c0.43-1.78,2.02-2.78,2.88-4.28c1.04-1.82,0.79-4.3-0.61-5.86
						c-0.21-0.23-0.45-0.54-0.32-0.82l-6.09,0.27c-0.97-2.98,0.33-6.14,1.14-9.16c0.82-3.02,0.9-6.81-1.61-8.66
						c-0.21-0.15-0.44-0.29-0.69-0.34c-0.09-0.02-0.17-0.02-0.25-0.02c-1.59-1.19-2.49-1.86-4.08-3.05
						c-0.98-5.89-3.28-11.97-2.92-18.12c0.16-2.67,0.81-5.29,0.99-7.95c0.37-5.39-1.18-10.86-0.14-16.15
						c1.03-5.2,4.48-9.73,5.16-14.99c0.38-2.87-0.1-5.8,0.32-8.66c0.49-3.33,2.14-6.36,3.88-9.23c1.92-3.17,3.98-6.25,6.04-9.33
						c2.4-3.6,4.83-7.24,6.34-11.3c1.29-3.48,1.88-7.17,2.46-10.84l0.58-3.69c0.68-4.32,0.58-8.72-0.31-13l-0.54-2.59
						c0.81,0.95,2.22,1.34,3.4,0.92c5.71-12.87,13.16-25.18,23.4-34.85c4.88-4.61,10.37-8.61,14.77-13.68
						c5.39-6.22,8.91-13.83,13.86-20.41s12.08-12.39,20.31-12.43c3.88-0.02,7.63,1.24,11.45,1.88c3.82,0.64,8.08,0.54,11.15-1.82
						c3.07-2.37,3.99-7.64,0.95-10.04c-1.65-1.31-4.11-1.59-4.77-3.97c-0.27-0.98-0.11-2.04,0.4-2.92c0.02-0.03,0.03-0.06,0.05-0.09
						c1.9-3.13,6.71-2.31,7.76,1.2c0.56,1.87,1.14,3.67,2.89,4.37c1.38,0.55,2.96,0.13,4.06-0.88c3.42-3.16,1.93-8.62,4.66-12.03
						c3.82-4.77,11.83-1.56,17.34-4.22c2.59-1.25,4.59-3.82,7.44-4.24c1.48-0.22,2.97,0.19,4.4,0.59c5.72,1.6,13.84,6.37,18.47,4.12
						c-11.66-4.46-4.82-8.38-31.86-20.47c5.71,2.64,12.35,1.61,18.61,0.99s15.68,9.55,17.94,3.68c1.94-5.04,11.55-1.17,11.55-1.17
						c-5.13-3.35-7.16-3.35-7.16-3.35c5.46-0.35,10.73,2.25,14.95,5.73c4.22,3.48,7.6,7.84,11.34,11.83c0.84,0.9,1.74,1.81,2.9,2.22
						s2.64,0.18,3.31-0.85c0.61-0.95,0.36-2.22-0.13-3.24c-2.4-5.01-9.2-6.66-11.09-12.14c-0.26-0.75-0.38-1.56-0.33-2.35
						c0.26-4.02,3.8-5.2,6.84-4.87c2.08,0.23,4.05,1.04,6.07,1.6c3.75,1.03,7.77,1.19,11.29,2.84c2.89,1.36,5.34,3.68,8.45,4.42
						c3.1,0.74,6.32-0.22,9.46-0.77c3.14-0.55,6.75-0.57,9.09,1.6c2.05,1.9,2.52,4.91,3.71,7.44c2.32,4.89,7.88,8.03,13.26,7.49
						l-2.35,2.25c2.28,1.3,4.43,2.82,6.41,4.55c-2.21,0.64-4.29,1.69-6.13,3.07c6.43,1,12.56,3.86,17.46,8.14
						c-4.8-1.37-9.81-2.03-14.8-1.94c5.92,1.98,11.51,4.95,16.47,8.75c-5.04-2.14-10.99-1.99-15.92,0.38
						c6.2,1.79,12.12,4.58,17.45,8.22c-4.68-3.18-10.92-3.94-16.23-1.97c6.03-0.51,12.24,1.86,16.4,6.25
						c-4.52-3.89-11.77-4.12-16.53-0.53c6.58-3.58,15.7-1.42,19.98,4.74l-6.68-1.61c-3.66-0.88-7.52-0.47-10.92,1.15
						c-9.72,4.64-12.5,5.59-25.64,21.42c-2.89,3.48-2.98,8.89-6.55,11.66c-1.46,1.13-3.18,1.84-4.89,2.55
						c-7.15,2.94-14.3,5.88-21.45,8.83c-9.67,3.98-29.66,5.2-39.97,3.42l7.35,1.93c8.92,3.45,28.35,0.79,37.39-2.34
						c9.04-3.13,8.23-6.65,17.42-9.31l12.48-5.58c-3.03,6.36-21.3,16.66-27.37,18.38c-3.07,0.87-6.35,1.51-8.81,3.54
						c-1.67,1.38-2.81,3.27-3.91,5.13c-1.58,2.64-3.15,5.28-4.73,7.93c-0.47,0.78-0.95,1.6-1.03,2.51c-0.1,1.05,0.33,2.06,0.66,3.06
						c1.74,5.19,1.34,11.57,5.43,15.2c0.48,0.43,1.05,0.87,1.14,1.51c0.12,0.9-0.76,1.97-0.12,2.62c0.37,0.37,0.98,0.27,1.49,0.14
						c2.04-0.53,4.08-1.06,6.12-1.58c-9.07,6.57-18.36,12.84-27.84,18.81l6.35-9.08l-25.44,16.6l3.31-4.77l9.72-11.79
						c-12.99,11.9-26.5,24.11-43.19,29.75c11.45-7.88,22.08-16.94,31.67-27c-18.65,15.58-39.95,29.64-64.07,32.57
						c4.46-2.84,8.7-6.03,12.68-9.51c-5.79,1.98-11.55,4.04-17.29,6.16c3.86-2.95,7.72-5.89,11.58-8.84
						c-2.43,1.13-4.85,2.26-7.28,3.38c2.13-1.78,4.26-3.56,6.4-5.33c-6.98,3.85-14.16,7.34-21.5,10.45
						c0.53-0.69,1.05-1.38,1.58-2.06c-5.08-0.1-9-4.22-13.07-7.25c-6.03-4.49-13.54-6.97-21.06-6.96c-3.43,0-6.85,0.51-10.28,0.42
						c-12.12-0.33-22.51-7.87-31.85-15.89c-2-1.72-5-1.55-6.81,0.36L247.02,457.96z"/>
				</g>
				<g>
					<path class="st0" d="M619.7,462.76c1.61-1.3,2.41-4.12,0.7-5.28c-1.49-1.01-4.12-0.2-4.88-1.83c-0.34-0.73-0.06-1.6-0.22-2.39
						c-0.34-1.68-2.36-2.32-4.04-2.65c-3.61-0.7-7.22-1.4-10.83-2.1c-0.57-0.11-1.23-0.21-1.7,0.14c-0.56,0.41-0.57,1.28-0.23,1.88
						c0.35,0.6,0.96,0.98,1.55,1.35c-1.41-0.96-3.34-1.11-4.89-0.37c-0.9,0.43-1.95,1.14-2.78,0.58c-0.7-0.47-0.65-1.52-1.03-2.27
						c-0.64-1.25-2.3-1.49-3.71-1.5c-10.03-0.1-19.98,2.99-29.96,2.07c7.01,1.71,14.25,2.46,21.46,2.23
						c-11.43,0.88-23.25,1.72-34.05-2.11l-1.68,1.7c-0.95,1.27-3.31,0.92-3.86-0.57c-0.3-0.8-0.12-1.75-0.57-2.48
						c-0.28-0.46-0.76-0.76-1.22-1.03c-1.41-0.85-2.83-1.71-4.24-2.56c-0.61-0.37-1.24-0.74-1.95-0.85
						c-2.59-0.39-4.45,2.85-7.07,3.03c0.36-1.65,0.72-3.31,1.08-4.96c0.08-0.35,0.15-0.72,0.03-1.06c-0.19-0.53-0.78-0.79-1.32-0.94
						c-1.66-0.46-3.46-0.42-5.11,0.11c-0.88,0.28-2.01,0.64-2.61-0.06c-0.44-0.51-0.3-1.27-0.38-1.93
						c-0.18-1.39-1.43-2.44-2.77-2.83c-1.34-0.39-2.77-0.24-4.16-0.09c-0.21-0.72,0,0-0.21-0.72l-0.27-0.7
						c-2.11-2.37-5.23-3.55-8.23-4.57c-9.8-3.34-19.82-6.02-29.98-8.02c5.15,0.01,10.3,0.03,15.44,0.04
						c-6.64-0.84-13.27-1.68-19.91-2.52c8.79-2.21,18.4-0.93,26.31,3.51c-7.72-4.57-16.03-8.14-24.65-10.59
						c8.73,1.34,17.21,4.3,24.87,8.69c-2.68-1.76-5.35-3.52-8.03-5.28c4.14,1.26,8.02,3.36,11.34,6.15
						c-0.03-5.11-2.42-10.15-6.35-13.41c3.85,2.47,6.68,6.49,7.69,10.95c1.2-5.63,2.94-11.15,5.19-16.45
						c-1.4,3.92-2.03,8.12-1.85,12.28c3.53-5.98,7.46-11.73,11.76-17.18c-3.38,4.29-5.9,9.26-7.35,14.53
						c3.72-6.94,7.83-14.01,14.28-18.51c6.43-4.49,15.27-6.61,18.68-13.68c0.86-1.78,1.28-3.83,0.85-5.77
						c-0.32-1.46-1.11-2.78-1.88-4.06c-2.25-3.75-4.5-7.5-6.75-11.25c-0.94-1.56-1.9-3.15-3.31-4.3c-2.74-2.21-6.63-2.33-10.08-1.67
						c-4.86,0.93-9.45,3.21-13.14,6.51c-2.73,2.45-5.04,5.66-5.31,9.32c-0.15,2.06,0.34,4.11,0.45,6.17
						c0.2,4.02-1.19,8.09-3.8,11.15c5.69-2.71,9.63-8.02,13.33-13.13c-12.37,18.54-30.72,33.02-51.64,40.74
						c-2.41,0.89-5.05,1.84-6.38,4.04c-1.55,2.55-0.79,5.8-0.91,8.78c-0.05,1.32-0.29,2.66,0.02,3.95c0.75,3.15,4.59,4.74,7.77,4.11
						c3.18-0.63,5.77-2.85,8.12-5.08c-2.32,3.19-5.56,5.71-9.22,7.18c5.94-0.42,11.76-2.55,16.56-6.07
						c-3.64,2.59-7.28,5.18-10.92,7.77c3.1-0.8,6.03-2.26,8.55-4.24c-1.67,2.06-3.58,3.92-5.68,5.54
						c5.58,0.39,10.51,3.61,15.15,6.73c5.82,3.91,11.63,7.81,17.45,11.72c3.96,2.66,8.01,5.36,12.6,6.68
						c3.45,0.99,7.09,1.15,10.55,2.09c4.32,1.18,8.22,3.53,12.03,5.9c3.52,2.18,7.12,4.45,11.19,5.2c8.17,1.52,16-3.25,23.96-5.63
						c8.95-2.67,18.79-2.27,27.5,1.12c1.36,0.53,2.77,1.14,4.23,1.04c3.44-0.26,5.71-4.33,9.15-4.44c3.18-0.1,5.77,3.3,8.93,2.95
						c2.22-0.25,3.88-2.41,4.11-4.64c0.23-2.22-0.68-4.42-1.91-6.28"/>
				</g>
				<g>
					<path class="st0" d="M279.06,511.22c9.14,11.6,9.36,35.66,11.2,41.63c1.25,4.06,4.72,6.97,7.03,10.53
						c2.08,3.19,3.22,6.9,5.18,10.17c5.01,8.36,15.32,12.92,25.01,11.9c9.7-1.02,18.5-7.18,23.62-15.48
						c-0.92,6.88-5.78,12.81-11.76,16.33s-12.99,4.93-19.91,5.51c9.4-1.27,18.62-3.9,27.29-7.79c-1.88,3.07-5.11,5.28-8.66,5.91
						c5.5-0.99,11-1.97,16.5-2.96c-2.81,1.91-5.78,3.57-8.88,4.97c14.38-4.62,28.95-9.28,44.04-10.07
						c4.71-0.25,9.65-0.17,13.82-2.38c2.59-1.38,4.7-3.57,7.39-4.76c2.68-1.19,6.4,0.76,8.34,2.77l-0.66-0.73
						c-4.02-4.3-9.59-6.73-15.44-7.35c-5.85-0.62-11.76,0.16-17.59,0.93c2.03-3.18,5.32-5.54,8.99-6.44
						c-3.53-0.89-7.17-1.32-10.81-1.27c1.97-2.67,4.19-5.51,7.39-6.38c4.86-1.31,9.99,2.45,14.89,1.29c-3.49-0.64-6.87-1.83-10-3.51
						c-2.29-1.23-4.46-2.73-6.93-3.52c-5.29-1.69-11.04,0.14-16.08,2.47s-10.01,5.21-15.54,5.75c1.34,3.34,2.65,6.76,2.85,10.34
						c0.2,3.59-0.87,7.43-3.61,9.75c3.27-4.34,3.43-10.77,0.39-15.28c0.35,2.74,0.23,5.54-0.37,8.24c-0.26-3.03-1.09-6.01-2.43-8.74
						c0.87,3.41,0.81,7.05-0.16,10.43c-0.61-6.22-1.57-12.41-2.88-18.52c-0.03,4.85-1.61,9.68-4.46,13.62
						c1.52-6.33,2.31-12.83,2.34-19.34c-1.99,1.97-5.13,2.38-7.85,1.74c-2.73-0.64-5.15-2.16-7.51-3.67
						c1.74,1.67,4.69,1.35,6.65-0.04c1.96-1.39,3.16-3.59,4.3-5.71c-2.55,0.95-5.53,0.64-7.82-0.83c2.4-2.6,3.09-6.64,1.68-9.89
						l-5.02,0.18l1.38-4.85c-4.34,2.43-8.88,4.5-13.57,6.15c-1.84,0.65-3.76,1.25-5.7,1.09c-3.93-0.32-6.9-3.56-9.44-6.57
						c3.43,3.03,8.75,0.78,13.31,1.15c1.28,0.11,2.57,0.44,3.84,0.25c3.12-0.46,4.91-3.69,6.24-6.55c0.22-0.47,0.44-0.99,0.32-1.5
						c-0.12-0.5-0.53-0.86-0.94-1.16c-2.19-1.63-4.87-2.61-7.6-2.78l-0.46-2.8c2.45-8.84,1.86-18.49-1.66-26.96
						c-0.79-1.91-1.75-3.8-3.21-5.27c-6.41-6.46-18.51-1.96-25.67-7.58l-2.61,1.32c-0.52,1.16-2.22,1.18-3.35,0.6
						c-1.13-0.58-2.07-1.56-3.3-1.88c-2.69-0.71-4.96,1.88-7.26,3.46c-1.83,1.26-4.05,1.95-6.27,1.95c0.06-1.98,0.9-3.94,2.34-5.31
						c0.49-0.47,0.72-1.18,0.54-1.84c-0.47-1.67-2.78-0.79-3.89-1.79c-0.91-0.82-0.62-2.55-1.67-3.19c-0.32-0.2-0.71-0.25-1.01-0.47
						c-0.87-0.66-0.29-2.02-0.4-3.11c-0.32-3.09-5.87-2.84-6.74-5.83l-2.02-1.22c0,0-3.05-0.67-5.53,4.22s-1.04,9.74-4.56,13.61
						s-8.78,6.34-9.52,9.33c-0.75,2.99-2.02,3.36-1.16,5.66s3.19,9.29,3.8,11.14c0.6,1.85,7.62,8.47,8.2,10.39s-0.69,9.45-0.49,10.6
						c0.2,1.15,0.96,5.05,5.18,7.57c4.22,2.52,7.74,1,11.22,5.84s-1.1,12.03,4.88,16.68c5.98,4.65,13.58,8.91,15.09,11.18
						c0,0-0.82-4.18-6.97-8.94c-6.16-4.77-9.7-10.74-9.26-13.36c0.45-2.62-3.87-10.19-8.27-11.25c0,0,5.9-1.77,11.49,6.08
						c0,0,2.55-4.16-4.69-12c0,0,5.95-0.47,12.09,8.48c0,0,3.91,4.58,4.51,10.33L279.06,511.22z"/>
				</g>
				<g>
					<path d="M575.28,382.44c0,0-9.63-0.31-16.46-4.61c-6.83-4.3-9.88-6.49-9.88-6.49s6.59,6.88,11,8.86
						S575.28,382.44,575.28,382.44z"/>
				</g>
				<g>
					<path class="st0" d="M623.01,369.06l-20.78-0.52C602.24,368.54,616.33,370.48,623.01,369.06z"/>
				</g>
				<g>
					<path class="st0" d="M627.1,370.04l-13.24,0.36C613.86,370.4,622.9,371.17,627.1,370.04z"/>
				</g>
				<g>
					<path d="M615.08,375.42c0,0-10.36-0.12-18.25,2.47s-13.53,4.35-13.53,4.35s16.3-4.12,19.47-4.7
						C605.95,376.95,615.08,375.42,615.08,375.42z"/>
				</g>
				<g>
					<path d="M649.63,376.84c0,0-15.33-2.78-27.38-2.91l15.95,2.33L649.63,376.84z"/>
				</g>
			</g>
			<g>
				<g>
					<path d="M493.62,447.51c4.93,4.22,10.43,7.76,16.32,10.49c-4.58-0.67-8.98-2.51-12.66-5.31c-0.54-0.41-1.07-0.84-1.52-1.35
						c-0.96-1.06-1.63-1.26-2.22-2.57L493.62,447.51z"/>
				</g>
				<g>
					<path d="M510.7,454.49c2.8,1.72,5.61,3.44,8.41,5.16c-1.34-1.31-2.68-2.62-4.03-3.94c5.67,3.59,11.35,7.18,17.02,10.77
						c-1.42-0.28-2.79-0.76-4.07-1.43c3.51,2.22,6.93,4.58,10.25,7.06c-9.92-5.48-22.94-13.56-32.28-19.97L510.7,454.49z"/>
				</g>
				<g>
					<path d="M560.29,473.14c-4.53,1.59-8.25,0.63-12.71-1.16c-4.46-1.79-8.36-4.73-11.95-7.92c3.67,2.93,7.44,5.72,11.32,8.36
						c2.4,1.63,4.92,3.25,7.79,3.71c-5.01-0.91-10.29,0.95-15.22-0.34c-4.4-1.15-7.76-4.59-11.32-7.43c-2.49-1.98-5.17-3.72-8-5.19
						c4.47,3.78,8.95,7.56,13.72,10.96c1.6,1.14,3.24,2.24,5.03,3.05c7.54,3.42,16.84,1.07,23.14-4.31L560.29,473.14z"/>
				</g>
				<g>
					<path d="M610.45,453.94c-0.86-0.64-1.7-1.57-2.73-1.86c-0.39-0.11-0.79-0.19-1.18-0.12c-1.05,0.2-1.58,1.67-0.92,2.5
						s3.66,0.17,4.74-0.38L610.45,453.94z"/>
				</g>
				<g>
					<path d="M618.98,464.88c-0.58-0.05-2.53-0.66-3.1-0.52c-0.48,0.12-1.05,0.59-0.77,1c0.15,0.22,0.45,0.25,0.71,0.24
						c0.55-0.02,1.1-0.13,1.61-0.33L618.98,464.88z"/>
				</g>
				<g>
					<path d="M469.07,438.78c2.57,0.58,5.3-0.28,7.44-1.82c2.14-1.54,3.74-3.69,5.12-5.93c-0.93,1.81-1.88,3.65-3.21,5.19
						s-3.12,2.79-5.13,3.09c-1.46,0.21-2.94-0.08-4.38-0.43"/>
				</g>
				<g>
					<path d="M516.79,464.03c-6-2.94-13.78-5.7-19.78-8.64c-2.13-1.04-4.28-2.1-6.05-3.67c-1.37-1.22-2.46-2.71-3.74-4.02
						c-3.03-3.09-6.98-5.08-10.86-7c3.59,2.28,6.71,5.24,9.52,8.42c1.77,2,3.47,4.13,5.73,5.55c1.9,1.19,4.09,1.82,6.23,2.49
						c5.89,1.85,11.96,3.44,17.5,6.17L516.79,464.03z"/>
				</g>
				<g>
					<path d="M523.14,376.48c-1.67,3.38-3.37,6.79-5.74,9.72c-3.29,4.07-7.87,7.18-10.14,11.9c2.4-3.13,5.87-5.24,8.94-7.72
						s5.96-5.69,6.37-9.61L523.14,376.48z"/>
				</g>
				<g>
					<path d="M525.44,380.9c-2.24,5.57-4.61,7.46-8.56,11.99c3.38-2.4,5.88-5.83,8.15-9.3c1.14-1.75,2.29-3.78,1.85-5.83
						L525.44,380.9z"/>
				</g>
				<g>
					<path d="M527.93,367.93c0.82-1.61,1.79-4.63,0.84-6.17s-2.49-2.64-4.14-3.39c-3.96-1.78-8.75-1.61-12.57,0.44
						c1.83-1.26,4.29-1.08,6.45-0.53c2.05,0.52,4.03,1.31,5.86,2.36c1.42,0.81,2.87,1.94,3.15,3.56L527.93,367.93z"/>
				</g>
				<g>
					<path d="M527.7,370.22c2.31,1.06,5.58,5.39,5.3,7.92c-0.28,2.52-1.64,4.79-3.11,6.86c-1.11,1.57-2.42,3.17-4.26,3.75
						c1.58-1.16,2.68-2.85,3.64-4.56c0.9-1.6,1.73-3.31,1.84-5.15c0.13-2.16,0.02-4.97-1.63-6.36L527.7,370.22z"/>
				</g>
				<g>
					<path d="M508.77,359.08c-4.05,1.39-7.26,5-8.18,9.19c2.12-2.47,3.64-5.54,6.29-7.43L508.77,359.08z"/>
				</g>
				<g>
					<path d="M506.91,371.25c-1.37,3.22-3.16,6.26-5.33,9.01c-0.77,0.97-1.6,1.93-2.69,2.53c1.03-1.15,1.61-2.69,1.59-4.24
						c-0.01-1.55-0.6-3.03-0.95-4.54c-0.35-1.51-0.44-3.22,0.43-4.5c-0.65,1.16-0.22,2.62,0.39,3.8c0.6,1.18,1.38,2.35,1.43,3.68
						c2.3-2.52,4.3-5.3,5.97-8.27L506.91,371.25z"/>
				</g>
				<g>
					<path d="M491.17,402.96c-2.27-1.89-5.16-3.04-8.11-3.22c2.34,1.24,9.97,5.13,12.03,6.79L491.17,402.96z"/>
				</g>
				<g>
					<path class="st0" d="M412.83,578.23c2.39-1.85,4.16-0.33,6.94,0.85c2.79,1.18,5.54,2.82,8.56,2.72
						c3.02-0.1,6.17-3.06,5.03-5.86c3.63-0.22,7.33,1.36,9.68,4.14c-1.25-4.61-5.03-8.44-9.62-9.75c1.99-0.1,4.69-1.06,4.25-3
						c-0.13-0.57-0.53-1.03-0.94-1.44c-4.07-4.11-10.24-6.02-15.93-4.93c-1.94,0.37-3.84,1.07-5.81,1.04
						c-2.03-0.03-3.95-0.83-5.88-1.45c-5.58-1.79-11.61-2.13-17.36-0.98c4.38,0.52,8.66,1.84,12.57,3.88
						c-2.32-0.15-4.68,1.11-5.84,3.12c9.11-0.93,18.52,1.28,26.26,6.18c1.11,0.7,2.23,1.5,2.84,2.67c0.61,1.16,0.56,2.78-0.46,3.61
						c-1.02,0.83-2.51,0.59-3.79,0.31c-3.53-0.78-8.24-4.51-12.21-0.24L412.83,578.23z"/>
				</g>
				<g>
					<path d="M294.05,489.07c-1.58-2.79-0.64-6.45,1.65-8.69c-1.91-0.42-3.77,1.38-3.99,3.32s2,5.45,3.3,6.91L294.05,489.07z"/>
				</g>
				<g>
					<path d="M319.93,502.13c-0.6,2.14-4.29,6.78-6.23,7.86c-1.93,1.08-4.3,1.37-6.44,0.77c1.6,1.17,3.51,2.38,5.43,1.88
						c0.76-0.2,1.42-0.66,2.02-1.16c1.86-1.55,3.28-3.61,4.06-5.9L319.93,502.13z"/>
				</g>
				<g>
					<path d="M293.51,498.9c3.33,5.21,9.64,8.35,15.81,7.87c-2.73,0.14-5.46,0.2-8.2,0.17c-2.2-0.02-4.52-0.13-6.36-1.33
						c1.68,1.1,3.42,2.1,5.21,3.01c1.12,0.57,2.5,1.1,3.58,0.45c-2.6,0.67-5.37,0.66-7.97-0.04c2.59,1.53,5.39,3.12,8.4,2.94
						c-3.19,1.15-6.94,0.62-9.68-1.38c-2.05-1.49-3.48-3.67-4.87-5.8c-0.88-1.36-1.77-2.72-2.65-4.08c3.15,1.21,5.84,4.06,9.21,3.89
						c-1.11-1.92-2.53-5.5-3.64-7.41L293.51,498.9z"/>
				</g>
				<g>
					<path d="M281.86,497.18c-2.27-1.48-4.16-1.93-6.81-2.49c-3.41-0.72-6.93,0.21-10.42,0.39c-3.48,0.18-7.5-0.75-9.14-3.83
						c-1.65-3.11-0.16-6.93,1.65-9.94c2.2-3.64,5.66-7.36,9.89-6.93c-1.59-1.16-3.8-1.18-5.63-0.46c-1.83,0.72-3.33,2.07-4.67,3.51
						c-1.98,2.14-3.71,4.59-4.55,7.38s-0.69,5.97,0.86,8.44c2.4,3.79,7.48,5.01,11.93,4.51c2.95-0.34,5.81-1.27,8.75-1.68
						c2.94-0.4,6.14-0.21,8.57,1.49L281.86,497.18z"/>
				</g>
				<g>
					<path d="M310.27,579.91c0.07-4.9-1.87-9.79-5.28-13.3c-1.65-1.7-3.63-3.1-5.09-4.97c-2.48-3.18-3.19-7.39-3.41-11.42
						c-0.22-4.03-0.03-8.13-1.06-12.04c-0.84-3.18-2.47-6.49-1.36-9.59c-2.23,2.08-2.81,5.43-2.49,8.47
						c0.32,3.03,1.39,5.94,1.92,8.94c0.74,4.21,0.46,8.73,2.43,12.52c1.6,3.09,4.49,5.28,7.09,7.6c2.6,2.32,6.44,6.35,6.87,9.81
						L310.27,579.91z"/>
				</g>
				<g>
					<path d="M327.73,582.65c-13.99-7.51-24.05-21.94-26.25-37.66c-1.73,6.58,0.44,13.73,4.38,19.28
						c3.93,5.56,12.38,12.56,18.01,16.39L327.73,582.65z"/>
				</g>
				<g>
					<path d="M301.63,541.89c0.93-2.1,1.53-5.79,0.66-7.92c-0.87-2.13-2.37-3.95-4.02-5.55c-1.72-1.67-3.7-3.27-4.48-5.54
						c-0.54-1.59-0.42-3.31-0.55-4.98c-0.26-3.41-1.62-6.73-3.82-9.36c-2.24-2.66-5.24-4.54-8.19-6.38
						c-1.49-0.93-3.03-1.87-4.76-2.14c-1.61-0.25-3.24,0.1-4.86,0.32c-8.28,1.14-17.47-1.61-22.33-8.42
						c4.88,6.15,11.52,10.88,18.92,13.49c-6.62-1.31-12.84-4.61-17.65-9.35c-1.63-1.61-3.19-3.62-3.06-5.91
						c-0.68,1.91-0.01,4.02,0.87,5.84c3.33,6.82,10.05,11.88,17.52,13.2c-3.7-0.64-7.51-0.18-11.25-0.49
						c-3.74-0.31-7.73-1.6-9.8-4.73c-1.84-2.77-1.86-6.49-3.88-9.13c-1.09-1.43-2.73-2.49-3.42-4.15c-1.24-3.03,1.2-6.22,3.47-8.59
						c-4.04,1.82-6.16,7.02-4.55,11.15c0.98,2.5,3.05,4.43,4.16,6.87c0.45,0.99,0.74,2.05,1.21,3.04c1.52,3.22,4.87,5.57,5.4,9.09
						c0.35,2.36-0.68,4.7-0.9,7.08c-0.34,3.65,2.01,1.12,4.99,3.24c-1.58-6.24-3.76-6.66-1.46-12.67c7.19,3.2,15.77,3.11,22.89-0.23
						c-2.01-0.52-3.97-1.25-5.82-2.19c2.14-0.02,4.24-1.13,5.46-2.88c-1.07-0.57-2.14-1.14-3.21-1.71c4.75-0.3,9.43,1.56,13.31,4.31
						c1.33,0.94,2.59,2.01,3.52,3.35c0.85,1.23,1.39,2.66,1.92,4.06c1.25,3.32,2.5,6.65,3.75,9.97c0.27,0.71,0.54,1.43,1.02,2.01
						c0.56,0.67,1.35,1.1,1.98,1.71c1.37,1.31,1.85,3.27,2.81,4.9c1.48,2.5,3.22,7.42,3.08,10.32L301.63,541.89z"/>
				</g>
				<g>
					<path d="M429.27,414.71c-3.65,2.69-7.59,5.03-11.86,6.54c-2.09,0.74-4.24,1.28-6.27,2.16c-2.03,0.89-3.96,2.17-5.14,4.04
						c1.61-2.08,3.97-3.57,6.54-4.12c2.16-0.47,4.43-0.3,6.54-0.95c1.87-0.58,3.48-1.78,5.02-2.99c2.26-1.77,5.94-4.81,8.15-6.65
						L429.27,414.71z"/>
				</g>
				<g>
					<path d="M450.47,404.7c-1.61,2.17-5.96,6.48-8.52,7.34c-1.11,0.37-2.27,0.59-3.39,0.92c-2.89,0.85-5.53,2.38-8.13,3.9
						c2.82-2.43,6.89-2.57,10.39-3.84c2.59-0.93,5.64-2.89,9.21-6.69L450.47,404.7z"/>
				</g>
				<g>
					<path d="M447.12,411.22c-3.09,2.75-9.6,6.02-13.46,7.52c-2.81,1.09-5.51,2.47-8.04,4.1c1.95-1.42,4.15-2.49,6.46-3.17
						c1.49-0.44,6.05-1.65,7.53-2.1c2.79-0.86,4.06-2.11,5.48-3.74L447.12,411.22z"/>
				</g>
				<g>
					<path d="M276.05,462.51c3.01-1.99,4.51-3.79,4.84-7.38c0.32-3.6-0.43-7.19-1.19-10.73c3.62,6.05,4.97,12.97,1.59,19.15
						c3.94-0.62,5.54-2.65,8.02-5.77c2.48-3.12,4.73-6.25,6.08-10c-2.59,6.6-6.25,12.78-10.8,18.22c4.63-0.67,8.92-3.05,12.34-6.25
						s6.02-7.18,8.09-11.38c-2.71,6.18-6.95,11.69-12.23,15.88c8.7-3.79,17.02-9.25,22.07-17.28c-3.74,6.61-8.74,12.5-14.66,17.26
						c7.91-4.35,16.08-8.99,21.19-16.42c-3.53,4.51-7.09,9.06-11.47,12.76c-4.38,3.69-9.7,6.51-15.41,6.96
						c-3.58,0.28-7.17-0.37-10.7-1.01c-0.69-0.13-1.43-0.27-1.95-0.75c-0.6-0.54-0.87-1.47-1.62-1.78
						c-0.79-0.32-1.64,0.22-2.46,0.44c-2.6,0.7-4.84-1.81-6.37-4.03L276.05,462.51z"/>
				</g>
				<g>
					<path d="M472.61,378.78c-8.21-1.05-16.79,1.22-23.4,6.2c6.72-4.19,14.77-6.2,22.67-5.67"/>
				</g>
			</g>
			<g>
				<path d="M262.13,467.89c-3.7,0.27-7.34,1.27-10.65,2.93c-1.86,0.93-3.66,2.09-4.98,3.7c-2.97,3.63-2.99,9.13-0.7,13.23
					c0.23-3.22-1.25-6.47-0.54-9.62c0.42-1.86,1.58-3.48,3.01-4.73c1.43-1.25,3.13-2.15,4.86-2.95c2.15-0.99,3.34-0.76,5.61-1.43
					L262.13,467.89z"/>
			</g>
			<g>
				<path d="M260.98,462.78c-3.41-1.67-4.22-1.36-7.56,0.46c-2.42,1.31-3.9,3.82-5.26,6.22c-2.41,4.23-4.82,8.46-7.23,12.7
					c4.66-3.93,7.38-9.62,10.44-14.9c0.61-1.05,1.26-2.12,2.2-2.89c1.47-1.2,3.51-1.52,5.39-1.28c1.88,0.24,3.66,0.98,5.41,1.71
					L260.98,462.78z"/>
			</g>
			<g>
				<path class="st0" d="M287.16,556.34c3.53,1.41,7.05,7.96,8.99,11.22c1.93,3.27,3.86,6.77,7.08,8.78
					c-2.94-0.96-5.24-3.26-7.12-5.72s-3.47-5.15-5.63-7.36c1.14,3.33,2.42,6.86,5.22,9.01c-2.4-1.06-4.42-2.95-5.64-5.27
					c-1.86-3.56-1.87-8.03-4.41-11.15L287.16,556.34z"/>
			</g>
			<g>
				<path d="M313.12,484.8c-2.78-2.52-7.01-3.25-10.52-1.92c-3.51,1.32-6.18,4.58-6.93,8.26c-0.75,3.67,0.38,7.65,2.83,10.48
					c-0.76-3.37-2.16-6.75-1.62-10.17c0.48-3.03,2.6-5.76,5.43-6.97s4.26-1.57,7.8-0.84L313.12,484.8z"/>
			</g>
			<g>
				<path d="M439.41,422.42c-2.63,0.5-3.94,2.69-6.25,3.3c-2.31,0.6-4.69,0.87-7.01,1.41c-3.11,0.71-6.1,1.89-9.04,3.14
					c4.58-3.25,11.31-0.9,16.24-3.58L439.41,422.42z"/>
			</g>
			<g>
				<path d="M441.79,424.41c-5.35,5.01-15.88,9.51-23.18,10.26c-7.3,0.75-14.67,0.3-21.97,1.02c-7.3,0.72-14.78,2.78-20.19,7.74
					c8.06-3.2,16.29-6.45,24.95-6.95c5.9-0.34,11.8,0.61,17.7,0.48c4.74-0.1,9.47-0.9,13.98-2.37c2.04-0.66,3.87-1.02,5.12-2.76
					c-2.99,4.99-11.78,6.89-18.49,9.41c-5.05,1.89-9.92,4.24-14.53,7.03c-8.68,5.25-16.5,12.1-25.98,15.7
					c7.52-1.55,14.85-4.72,20.39-10.03c1.63-1.57,3.09-3.31,4.81-4.77c9.69-8.27,24.76-6.05,35.77-12.46
					c-5.52,4.75-11.91,8.48-18.75,10.95c-3.63,1.31-7.37,2.26-11,3.58c-16.21,5.89-29.62,18.87-46.57,22.06
					c10.13-0.62,19.63-5.06,28.48-10.04c8.85-4.99,17.41-10.64,26.97-14.07c4.28-1.54,8.74-2.63,12.88-4.52
					c4.13-1.89,9.06-5.56,12.2-8.85L441.79,424.41z"/>
			</g>
			<g>
				<path d="M306.48,467.43c4.07-2.02,8.73-2.37,13.19-3.25c4.46-0.88,9.12-2.55,11.72-6.28c-3.54,3.5-7.53,6.54-11.83,9.05
					c2.97-0.7,5.77-2.15,8.06-4.16c-2.15,3.62-5.42,6.56-9.24,8.31c1.28-0.63,2.56-1.26,3.84-1.89c0.39-0.19,0.83-0.39,1.25-0.3
					c0.37,0.08,0.66,0.36,0.96,0.61c2.76,2.33,7,1.95,10.22,0.33s5.82-4.26,8.75-6.38c6.03-4.36,13.65-6.49,21.07-5.89
					c-4.19-0.14-8.25,1.33-12.19,2.78c-2.42,0.89-4.86,1.79-7.02,3.2c-2.9,1.88-5.16,4.57-7.83,6.77c-2.88,2.37-6.25,4.15-9.83,5.21
					c1.1-1.02,2.88,0.08,3.7,1.34c0.82,1.26,1.54,2.86,3.01,3.16c0.76,0.15,1.53-0.1,2.26-0.38c4.43-1.7,8.46-4.45,11.66-7.96
					c-2.73,3.42-5.95,6.44-9.54,8.94c-1.1,0.77-2.32,1.52-3.66,1.53c-0.61,0.01-1.21-0.14-1.8-0.32c-5-1.51-9.09-5.04-13.27-8.18
					c-4.18-3.13-8.94-6.06-14.17-6.02"/>
			</g>
			<g>
				<path d="M386.66,443.88c-2.69,2.36-6.63,2.48-9.93,3.87c-1.75,0.74-3.34,1.85-4.63,3.24c3.37-3.64,9.83-2.32,13.54-5.61
					L386.66,443.88z"/>
			</g>
			<g>
				<path d="M383.41,454.09c-2.95,3.13-7.03,4.89-10.98,6.58c-4.87,2.07-9.74,4.15-14.6,6.22c3.89-1.48,8.18-1.53,12.2-2.59
					c6.66-1.76,12.5-6.44,15.65-12.57L383.41,454.09z"/>
			</g>
			<g>
				<path d="M406.32,573.98c-4.1-0.06-7.69,2.63-11.67,3.62c-2.98,0.75-6.12,0.52-9.18,0.82c-4.73,0.47-9.24,2.19-13.68,3.89
					c3.34-4.1,9.01-5.39,14.28-5.8s10.75-0.25,15.58-2.39L406.32,573.98z"/>
			</g>
			<g>
				<path d="M502.88,341.01c-4.68,1.01-9.23,0.15-13.16,3.73c-0.63,0.57-1.17,1.24-1.66,1.93c-1.8,2.59-3.33,5.35-4.98,8.02
					c-0.96,1.55-1.46,3.41-1.04,5.19c0.03,0.14,0.09,0.28,0.18,0.39c0.3,0.37,0.87,0.36,1.34,0.27c2.49-0.5,4.42-2.48,5.88-4.56
					s2.68-4.38,4.55-6.1c1.74-1.6,3.93-2.59,5.91-3.88c1.98-1.29,4.07-2.92,4.53-5.23l-1.04,0.14
					C503.22,340.94,503.05,340.98,502.88,341.01z"/>
			</g>
			<g>
				<path d="M484.05,371.07c-0.13-1.28,0.18-2.6,0.85-3.7c-0.94-0.8-2.27,0.55-3.5,0.5c-0.42-0.02-0.8-0.2-1.2-0.32
					c-1.95-0.59-4.45,0.95-4.21,2.98c0.08,0.65,0.41,1.24,0.66,1.85c0.88,2.1,0.87,4.55-0.02,6.64c-0.28,0.67-0.66,1.31-0.77,2.03
					c-0.11,0.72,0.15,1.56,0.8,1.87c1.11,0.52,2.19-0.75,2.77-1.84c1.71-3.2,3.42-6.41,5.13-9.61"/>
			</g>
			<g>
				<path d="M473.53,323.87c-2.47-0.07-4.77,1.37-6.42,3.21c-1.65,1.84-2.79,4.07-4.08,6.18c-2.17,3.54-4.81,6.78-7.84,9.62
					c0.97-0.43,2.1-0.18,3.16-0.32c1.63-0.22,2.98-1.34,4.1-2.55c4.32-4.67,6.42-11.05,10.72-15.74L473.53,323.87z"/>
			</g>
			<g>
				<path d="M374.71,316.96c1.36,0.31,6.22-0.48,7.57-0.17c-0.61-0.74-1.23-1.48-1.84-2.22c2.19,0.21,4.32-0.65,6.45-1.22
					c4.84-1.29,10.07-1.09,14.79,0.59c2.14,0.76,4.22,1.82,6.48,1.94c2.26,0.12,4.82-1.07,5.31-3.28c0.27-1.21-0.13-2.47,0.05-3.7
					c0.48-3.25,4.42-4.52,7.65-5.1c2.58,1.54,3.01,5.14,2.44,8.09c-0.57,2.95-1.86,5.82-1.66,8.82c0.15,2.17,1.07,4.2,1.71,6.28
					c1.5,4.88,1.42,10.22-0.21,15.05c6.23-0.52,11.06-7.49,9.34-13.51c-0.66-2.32-2.14-4.63-1.54-6.97c0.6-2.37,3.19-3.96,3.41-6.4
					c0.16-1.83-1.09-3.45-1.62-5.21c-0.53-1.76,0.38-4.32,2.2-4.07c0.66,0.09,1.22,0.56,1.62,1.1c2.26,3.03,0.33,7.53,1.72,11.05
					c1.06,2.7,3.93,4.44,4.72,7.23c1.33,4.67-3.74,9.92-1.31,14.12c-0.27-3.9,2.78-7.11,5.21-10.18c2.43-3.06,4.39-7.56,2.03-10.68
					c-0.67-0.88-1.65-1.58-1.94-2.65c-0.75-2.71,3.93-4.05,5.77-1.93c1.84,2.12,1.44,5.31,0.93,8.08c-0.75,4.06-1.5,8.12-2.25,12.17
					c0.47-6.77,9.7-9.76,11.41-16.32c0.92-3.5-0.53-7.41,0.86-10.75c1.27-3.05,4.67-4.95,5.5-8.15c-5.98-2.79-11.96-5.59-17.95-8.38
					c-1.74-0.81-3.58-1.64-5.49-1.48c-1.91,0.17-3.84,1.74-3.67,3.65c0.1,1.04,0.77,1.93,1.48,2.69c2.4,2.56,5.6,4.39,7.49,7.34
					c1.89,2.95,1.63,7.79-1.66,9.01c-2.36,0.88-4.92-0.55-6.88-2.13c-7.08-5.71-11.22-13.34-19.97-15.8
					c-0.93-0.26-3.29-0.73-4.16-0.32c-1.45,0.69-1.55,1.89-2.77,2.93c-1.84,1.57-5.29,1.83-7.51,0.88
					c-5.77-2.46-11.51-4.77-17.74-4.08c5.58,6.84,12.29,12.75,19.78,17.42c-2.29,3.37-7.43,1.31-11.28-0.04
					c-9.92-3.48-20.74,0.55-30.47,4.54c-1.98,0.81-4.02,1.66-5.52,3.18c-2.39,2.42-3,6.08-4.83,8.95c-1.84,2.87-6.43,4.67-8.45,1.94
					c0.56,5.85-3.42,11.82-9.03,13.56c-7.75,2.4-16.36-2.74-24.1-0.29c-6.49,2.05-10.18,8.66-13.72,14.47
					c-5.85,9.6-12.97,18.42-21.1,26.18c-9.84,9.39-21.76,18.13-25.28,31.27c-2.81,10.49-2.8,30.82-9.16,39.63
					c6.4-5.54,12.63-6.23,17.14-4.28c-2.17-1.53-4.55-3.44-4.65-6.09c-0.05-1.28,0.47-2.5,0.72-3.75c0.8-3.95-1.03-7.98-0.83-12.01
					s4.67-8.34,7.86-5.87c2.48,1.92,1.57,5.92,3.02,8.69c1.65,3.15,6.35,3.83,9.23,1.75c2.88-2.08,3.85-6.16,2.91-9.58
					c-0.95-3.42-3.51-6.22-6.47-8.19c-2.38-1.59-5.37-3.18-5.65-6.03c-0.16-1.59,0.63-3.11,1.39-4.51
					c2.69-4.95,6.86-10.67,12.41-9.72c2.16,3.74-1.96,8.4-0.99,12.61c0.73,3.18,4.14,5,7.35,5.61c3.21,0.61,6.59,0.46,9.62,1.67
					c1.19-2.84-0.08-6.06-1.34-8.87c-3.05-6.82-6.1-13.64-9.16-20.45c0.53-2.19,3.85-2.46,5.55-0.98c1.71,1.48,2.26,3.84,2.92,5.99
					c2.18,7.08,6.59,13.45,12.43,18c0.96,0.74,2.02,1.47,3.23,1.57c3.38,0.29,5.13-4.48,3.67-7.54c-1.46-3.06-4.62-4.85-7.21-7.04
					c-5.44-4.61-8.69-11.88-7.89-18.96c0.45-4.02,2.15-7.86,4.61-11.07c1.12-1.46,2.63-2.91,4.47-2.86c3.02,0.07,4.4,4.03,3.74,6.98
					c-0.66,2.95-2.5,5.62-2.64,8.64c-0.12,2.5,0.94,4.89,1.98,7.16c2.57,5.64,6.09,12.04,12.23,12.92c2.42,0.35,5.47-0.86,5.63-3.31
					c0.06-0.84-0.25-1.65-0.55-2.44c-4.51-11.87-9.03-23.74-13.71-35.54c1.51-3.69,7.51-2.74,9.69,0.59
					c2.18,3.33,1.96,7.61,2.49,11.56c0.81,6.03,3.53,11.67,7.03,16.65c0.31,0.43,0.63,0.87,1.07,1.17c1.18,0.79,2.83,0.3,3.92-0.62
					c3.14-2.66,2.79-7.69,1.07-11.42c-1.72-3.74-4.51-6.99-5.64-10.94c-1.28-4.49-0.54-10.01-3.99-13.16
					c2.54-2.2,6.95-1.64,8.86,1.12c1.71,2.47,1.36,5.82,2.45,8.62c2.67,6.89,8.69,10.01,15.88,14.94c-3.88-3.48-1.37-9.84-2.13-15
					c-0.95-6.43-7.05-10.62-12.59-14.02c1.17-2.12,4.04-2.76,6.4-2.18c2.35,0.57,4.35,2.07,6.4,3.36c0.95,0.6,2.04,1.19,3.14,0.97
					c2.05-0.4,2.59-3.21,1.9-5.18c-0.69-1.97-2.12-3.69-2.4-5.76c-0.47-3.51,2.85-6.72,6.38-7.06s6.94,1.56,9.45,4.06
					c5.18,5.16,7.28,12.8,7.22,20.11c-0.06,7.32-2.06,14.46-4.04,21.5c3.39-9.91,12.35-18.4,11.36-28.82
					c-0.78-8.25-7.6-14.44-13.95-19.77c2.11-0.67,3.56-2.99,3.23-5.18c-0.32-2.19-2.38-3.99-4.59-4.03L374.71,316.96z"/>
			</g>
			<g>
				<path d="M630.23,312.52c0.79,2.21,0.38,4.81-1.07,6.66c0.28-1.11-0.04-2.31-0.64-3.29c-0.59-0.98-0.21,0.34-1.04-0.46
					c0.09,0.56-0.68,1.47-0.58,2.03c-0.33-1.89-1.02-6.27-1.35-8.16c0.5,1.22,1,2.44,1.49,3.65c0.15-0.22,0.29-0.44,0.44-0.66
					c0.42,0.66,0.84,1.31,1.26,1.97c0.61-0.19,0.95-0.32,1.26-0.88L630.23,312.52z"/>
			</g>
			<g>
				<path d="M630.54,333.36c-2.54,7.06-9.58,12.27-17.08,12.63c4.83-0.18,9.92-1.1,13.52-4.32c3.9-3.49,5.28-8.96,6.14-14.12
					L630.54,333.36z"/>
			</g>
			<g>
				<path class="st0" d="M593.02,480.5c0,0,1.27,2.38-6.83,8.18c-8.84,6.33-18.26,9.34-23.79,8.87c0,0,16.09,2.58,23.43-4.03
					S593.77,482.69,593.02,480.5z"/>
			</g>
			<g>
				<path class="st0" d="M421.53,584.35c2.7,3.96,2.56,9.32,0.85,13.8s-4.81,8.26-7.85,11.97c6.17-3.74,10.77-9.99,12.51-16.99
					c0.45,2.33,0.1,4.81-0.98,6.93c1.36-1.29,2.43-2.88,3.12-4.62c0.43-1.08,0.71-2.24,0.64-3.4c-0.11-1.91-1.18-3.65-2.55-4.98
					s-5.84-4.25-7.5-5.2L421.53,584.35z"/>
			</g>
			<g>
				<path class="st0" d="M383.63,543.68c3.86-0.92,7.5-2.69,10.6-5.16c1.81-1.44,3.51-3.16,5.7-3.92c2.62-0.91,5.83-0.41,7.9-2.26
					c-1.69,1.68-3.45,3.41-5.69,4.23c-1.13,0.41-2.34,0.58-3.51,0.9c-4.91,1.38-7.82,6.13-12.92,6.27L383.63,543.68z"/>
			</g>
			<g>
				<path class="st0" d="M587.39,316.8c-0.72,1.38-1.59,4.02-1.76,5.57c-0.24,2.25-0.48,4.57,0.09,6.76c0.81,3.12,3.15,5.61,5.6,7.7
					c1.93,1.64,4.17,3.2,6.7,3.22c-3.46-1.24-6.31-3.79-8.62-6.65c-0.84-1.05-1.63-2.16-2.11-3.42c-0.37-0.96-0.54-1.98-0.66-3
					c-0.3-2.65-0.2-5.36,0.3-7.98L587.39,316.8z"/>
			</g>
			<g>
				<path class="st0" d="M604.31,314.89c-2.01-0.11-3.92,1.05-5.25,2.57c-1.43,1.63-2.33,3.76-2.31,5.93s1.03,4.35,2.8,5.61
					c-2.18-1.61-3.47-4.34-3.34-7.05c0.13-2.7,1.69-5.3,4.02-6.68c0.58-0.34,1.21-0.62,1.87-0.73c1.12-0.19,2.26,0.11,3.4,0.14
					L604.31,314.89z"/>
			</g>
			<g>
				<path class="st0" d="M605.75,307.85c4.53,1.22,8.75,3.83,11.54,7.6c2.79,3.78,4.04,8.74,2.98,13.32
					c-0.02-3.14-0.11-6.41-1.57-9.19c-0.68-1.3-1.64-2.44-2.61-3.54c-2.8-3.21-4.57-5.92-8.65-7.13L605.75,307.85z"/>
			</g>
			<g>
				<path class="st0" d="M599.21,310.89c-2.76,0.69-5.39,2-7.47,3.94c-2.08,1.94-3.6,4.52-4.09,7.32c-0.42,2.42,0.03,5.15,1.83,6.81
					c-0.79-2.45-1.6-5.07-0.93-7.56c0.29-1.07,0.83-2.05,1.43-2.97c1.84-2.81,4.36-5.24,7.43-6.58L599.21,310.89z"/>
			</g>
			<g>
				<path class="st0" d="M616.44,325.92c-0.56,2.61-1.67,5.2-3.66,6.99s-4.97,2.62-7.43,1.58c2.33,0.7,4.99,1.14,7.07-0.12
					c1.32-0.8,2.18-2.15,2.97-3.46c0.8-1.32,1.85-5.67,1.79-7.21L616.44,325.92z"/>
			</g>
			<g>
				<path class="st0" d="M611.23,476.67c1.25,1.33,1.74,3.26,1.65,5.09c-0.09,1.83-0.71,3.59-1.43,5.27
					c-1.89,4.43-4.52,8.54-7.74,12.11c3.5-2.96,6.56-6.46,8.79-10.47c3-5.39,5.19-11.56,9.09-15.99c-2.57,1.09-2.07,2.73-3.67,2.92
					c-1.39,0.17-2.69-0.65-4.04-1.05c-1.35-0.4-3.21-0.08-3.52,1.3L611.23,476.67z"/>
			</g>
			<g>
				<path class="st0" d="M622.88,457.51c0.12,1.52-0.06,3.06-0.54,4.51c-0.09,0.28-0.2,0.58-0.11,0.86
					c0.05,0.17,0.17,0.32,0.29,0.46c0.75,0.95,1.2,2.12,1.29,3.32c0.02,0.26,0.03,0.54,0.21,0.72c0.16,0.16,0.41,0.2,0.63,0.23
					c2.26,0.37,4.25,1.78,5.68,3.57c1.43,1.78,2.36,3.92,3.1,6.08c1.46-3.61,0.57-7.84-1.48-11.15c-2.05-3.31-5.13-5.83-8.28-8.11
					L622.88,457.51z"/>
			</g>
			<g>
				<path class="st0" d="M420.76,542.08c-0.46-2.37-3.17-1.76-5.44-2.57c-2.27-0.81-4.77-0.71-7.14-0.28
					c-2.03,0.37-4.04,0.97-5.87,1.94c-2.74,1.45-5,3.66-7.66,5.24c-2.66,1.58-6.08,2.48-8.82,1.05c3.64-0.39,7.07-1.92,10.25-3.75
					c3.17-1.83,6.16-3.98,9.35-5.78c0.79-0.45,1.6-0.87,2.48-1.1c0.85-0.21,1.73-0.23,2.59-0.39c1.74-0.31,3.41-1.19,5.17-1.03
					c1.79,0.17,3.35,1.43,4.24,3c0.89,1.56,1.19,3.39,1.29,5.19L420.76,542.08z"/>
			</g>
			<g>
				<path class="st0" d="M318.01,480.52c4.49,6.53,6.34,14.82,5.06,22.63c2.31-5.64,1.61-12.28-1.31-17.63
					c1.63,2.76,2.98,5.69,4.01,8.73c-0.16-1.26-0.32-2.51-0.49-3.77c-0.18-1.36-0.37-2.74-0.91-4c-0.73-1.72-2.05-3.11-3.45-4.35
					c-2.8-2.47-6-4.44-9.18-6.39L318.01,480.52z"/>
			</g>
			<g>
				<path class="st0" d="M458.25,284.23c1.36,0.34,1.53,0.68,2.9,0.96c0.96,0.2,1.95-0.11,2.92-0.18c2.25-0.17,4.41,0.87,6.35,2.02
					c1.94,1.15,3.86,2.46,6.08,2.91s4.85-0.22,5.92-2.21c-2.24,1.5-5.27,1.28-7.77,0.26c-2.5-1.02-4.65-2.73-6.94-4.15
					c-0.4-0.25-0.82-0.49-1.28-0.53c-0.55-0.05-1.08,0.18-1.59,0.37c-2.61,0.94-5.63,0.67-8.03-0.71L458.25,284.23z"/>
			</g>
			<g>
				<path class="st0" d="M241.75,417.69c2.03,11.91,0.96,29.74-5.32,40.07c-2.36,3.89-5.25,7.45-7.44,11.43
					c-4.7,8.55-5.95,18.52-7.1,28.21c0.62-8.36-0.86-17.12,2.2-24.93c2.18-5.59,6.46-10.05,9.76-15.06
					c5.49-8.32,8.29-18.39,7.89-28.35L241.75,417.69z"/>
			</g>
			<g>
				<path class="st0" d="M507.83,629.97c1.58-2.23,1.44-5.39,0.12-7.78s-3.68-4.09-6.19-5.16c-3.46-1.47-7.37-1.89-11.06-1.18
					c2.19-2.23,5.54-3.27,8.61-2.66c1.95,0.39,3.72,1.37,5.36,2.5c2.47,1.7,4.89,4.15,4.85,7.16l1.21-2.9
					c0.71-2.63-0.48-3.19-2.12-5.36c-1.64-2.17-3.9-3.78-6.12-5.35c4.65,1.5,8.64,4.92,10.83,9.28c-0.86-3.91-3.29-7.45-6.62-9.67
					c3.69,1.25,7.16,3.13,10.22,5.54c-1.44-2.65-3.41-5-5.76-6.88c2.22,0.54,4.36,1.46,6.27,2.71c-0.69-1.18-1.38-2.35-2.07-3.53
					c1.25,0.24,2.48,0.64,3.64,1.17c-0.61-1.5-1.42-2.92-2.4-4.21c1.8-0.23,3.64-0.16,5.42,0.2c-0.78-0.38-1.08-1.4-0.91-2.26
					s0.71-1.58,1.24-2.28c1.3-1.74,2.61-3.48,3.91-5.22c-0.16,2.2-1.04,4.34-2.48,6.01c-0.58,0.68-1.31,1.46-1.09,2.32
					c0.12,0.46,0.49,0.83,0.63,1.28c0.27,0.9-0.49,1.84-1.39,2.12c-0.9,0.27-1.86,0.07-2.77-0.14c0.52,0.62,1.07,1.31,1.09,2.12
					c0.01,0.81-0.85,1.64-1.57,1.28c0.27,0.71,0.54,1.41,0.81,2.11c-0.83,0.54-1.78,0.87-2.77,0.96c1.04,0.77,2.17,2.2,1.31,3.15
					c-0.58,0.64-1.63,0.44-2.38,0.03c-0.75-0.42-1.44-1.03-2.3-1.1c1.08,2.16,1.61,4.58,1.54,6.99c-0.85-0.09-1.68-0.39-2.41-0.85
					c-0.57,0.54-0.95,1.28-1.04,2.06L507.83,629.97z"/>
			</g>
		</g>
		<g>
			<g>
				<path d="M405.11,705.73c-7.95,0-15.94-0.42-23.75-1.25c-22.15-2.36-43.89-8.11-64.59-17.08c-17.36-7.52-34.16-17.38-49.93-29.29
					c-30.42-22.98-49.35-47.91-56.07-57.56c-19.08-27.37-20.94-59.97-22.18-81.54c-0.16-2.82-0.31-5.4-0.48-7.62
					c-1.77-23.45,2.26-39.51,4.86-47.07c-5.94-6.95-7.29-16.73-3.5-25.01c-4.07-8.85-2.27-19.43,4.71-26.41l3.6-3.6
					c-0.76-4.39-0.25-8.97,1.45-13.1c-0.63-1.1-1.18-2.25-1.63-3.44c-2.79-7.41-1.65-15.72,2.94-22.05
					c0.08-9.18,5.44-17.37,13.97-21.15l8.88-3.93c1.26-9.48,8.23-17.38,17.69-19.7l3.05-0.75c2.9-6.18,8.38-10.8,14.97-12.62
					c3.64-7.58,11.05-12.64,19.52-13.23c0.19-0.21,0.39-0.43,0.59-0.63c3.38-9.24,12.1-15.38,22.03-15.38
					c0.83,0,1.66,0.04,2.49,0.13l6.69,0.74c0.33-0.22,0.67-0.42,1.02-0.62c3.52-8.78,12.26-14.78,21.81-14.78c0.07,0,0.15,0,0.22,0
					c3.99-4.81,9.75-7.82,16.01-8.36c3.97-7.75,12.05-12.79,20.89-12.79c0.37,0,0.73,0.01,1.11,0.03l1.55,0.07
					c1.96-2.36,4.36-4.31,7.08-5.74c4.09-7.45,12.01-12.19,20.57-12.19c0.83,0,1.66,0.04,2.48,0.13c1.5,0.16,2.99,0.47,4.44,0.91
					l0.55,0.17c4.43-5.35,11.13-8.58,18.16-8.58c0.82,0,1.64,0.04,2.45,0.13c2.47,0.26,4.88,0.92,7.16,1.95l3.92,1.77
					c2.35-0.76,4.83-1.15,7.28-1.15c0.82,0,1.64,0.04,2.45,0.13c2.53,0.27,4.99,0.95,7.32,2.02l12.99,5.97
					c1.46-0.28,2.95-0.42,4.44-0.42c0.75,0,1.5,0.04,2.24,0.11l0.23,0.02c2.83,0.3,5.56,1.11,8.12,2.41l5.96,3.02
					c1.9-0.49,3.85-0.73,5.82-0.73c0.76,0,1.52,0.04,2.28,0.11l0.93,0.1l0.03,0.02c0.5,0.07,1,0.16,1.49,0.26
					c1.39-4.21,2.25-7.74,2.39-9.29c0.33-3.67,1.27-10.54,2.78-20.43c2.25-14.69,14.64-25.35,29.47-25.35
					c1.07,0,2.15,0.06,3.21,0.17c2.99,0.32,5.9,1.08,8.68,2.28c2.44,1.05,5.22,2.21,7.91,3.34c7.21,3.02,15.29,6.4,23.98,10.48
					c20.26,9.51,28.26,24.07,32.56,32.04c3.09,1.22,7.92,3.24,12.49,7.2c6.12,5.29,8.92,11.88,13.75,24.02
					c1.56,3.92,3.17,7.97,4.73,11.28c0.99,2.1,1.64,3.22,1.95,3.72c0.7,0.6,1.77,1.41,2.73,2.14c3.52,2.68,7.88,6.01,11.65,10.85
					c3.24,4.15,5.05,8.16,6.38,11.08c0.24,0.52,0.7,1.54,0.95,2.02c12.3,14.54,18,25.49,20.62,32.13c0.54,1.36,1.23,2.57,2.05,3.59
					c5.21,6.41,6.78,8.86,7.99,11.38c2.96,6.12,3.26,13.21,0.89,19.72c0.77,1.72,1.32,3.52,1.66,5.4c0.47,2.58,0.5,5.2,0.09,7.79
					c0.42,1.44,0.69,2.92,0.83,4.42c0.42,4.74-0.63,9.57-2.98,13.7c-0.33,1.83-0.88,3.62-1.63,5.33c-0.71,1.61-1.6,3.13-2.65,4.54
					c-0.6,1.68-1.4,3.29-2.37,4.8c-2.2,3.41-5.18,6.14-8.71,8.01c-0.25,1.4-0.63,2.77-1.14,4.12c-1.81,4.79-5.16,8.89-9.48,11.61
					c-2.66,3.02-6.03,5.29-9.81,6.61c-1.44,1.57-3.09,2.93-4.92,4.06c-1.16,0.72-2.4,1.34-3.69,1.85c2.05,3.84,3.54,7.9,4.45,12.12
					c2.68,12.5-0.41,22.51-2.5,27.36c-3.42,7.95-9.7,14.28-18.16,18.3c-4.85,2.3-9.06,3.19-10.65,3.46c-0.66,0.12-1.33,0.2-2,0.26
					c-2.85,2.27-5.95,4.37-9.23,6.28c-6.54,3.79-14.76,5.72-24.45,5.72c-2.85,0-5.87-0.17-8.98-0.5c-2.41-0.26-4-0.52-4.43-0.6
					c-0.74-0.13-1.49-0.3-2.23-0.5c-1.64,0.34-3.04,0.59-4.14,0.77v0.01l1.2,1.64c4.27,5.83,5.61,13.18,3.67,20.15l-0.19,0.69
					l1.37,5.54c0.95,3.85,0.91,7.86-0.11,11.68c2.76,7.57,1.44,16.04-3.57,22.46l-4.65,5.94l-0.31,6.15
					c-0.47,9.24-6.35,17.37-14.98,20.71l-1.05,0.41l-1.59,4.38c-0.67,1.84-1.56,3.59-2.66,5.2c-0.34,1.11-0.77,2.2-1.28,3.25
					c-2.95,6.1-8.38,10.63-14.91,12.42l-2.14,0.59c-1.59,1.73-3.42,3.2-5.46,4.38l-0.48,0.28l-1.73,2.74
					c-2.86,4.52-7.16,7.92-12.18,9.64c-45.42,37.37-98.59,41.83-100.84,42c-0.49,0.04-1,0.06-1.5,0.07
					C407.07,705.72,406.09,705.73,405.11,705.73z M301.24,301.02c-2.64,0-5,1.87-5.61,4.44c-0.46,2.02-1.57,3.79-3.13,5.03
					c-0.6,0.48-1.1,1.07-1.46,1.74c-1.48,2.7-4.31,4.46-7.39,4.59l-3.65,0.16c-2.74,0.12-5.03,2.17-5.44,4.87
					c-0.63,4.1-4.09,7.26-8.24,7.5l-1.27,0.07c-2.68,0.15-4.87,2.1-5.34,4.73c-0.61,3.45-3.21,6.22-6.62,7.05l-7.8,1.91
					c-2.82,0.69-4.69,3.39-4.35,6.27c0.01,0.13,0.03,0.25,0.06,0.37c0.74,4.04-1.36,8.03-5.12,9.69l-14.18,6.28
					c-2.46,1.09-3.83,3.69-3.33,6.33c0.57,3.02-0.44,6.07-2.7,8.16c-1.74,1.6-2.32,4.06-1.49,6.27c0.34,0.89,0.89,1.69,1.6,2.31
					c1.77,1.54,2.88,3.77,3.03,6.12c0.15,2.34-0.66,4.7-2.23,6.45c-1.56,1.75-1.89,4.32-0.84,6.41c1.72,3.42,1.06,7.54-1.65,10.24
					l-7.38,7.38c-2.01,2.01-2.24,5.24-0.54,7.52c0.11,0.14,0.22,0.28,0.34,0.41c2.88,3.2,3.05,7.98,0.41,11.38l-0.64,0.82
					c-1.79,2.3-1.59,5.58,0.48,7.63c0.37,0.36,0.77,0.67,1.21,0.93c4.03,2.29,5.61,7.37,3.58,11.54c-0.14,0.29-0.27,0.57-0.4,0.85
					c-3.61,7.71-6.92,23.21-5.38,43.57c0.18,2.4,0.34,5.08,0.5,7.92c1.12,19.59,2.82,49.19,19.03,72.45
					c6.24,8.96,23.82,32.1,52.22,53.56c14.65,11.07,30.22,20.21,46.3,27.18c19.06,8.26,39.06,13.55,59.43,15.72
					c7.18,0.77,14.54,1.15,21.87,1.15c0.9,0,1.81-0.01,2.71-0.02c0.12,0,0.24-0.01,0.36-0.02c2.05-0.16,50.87-4.29,92.24-39.09
					c1.05-0.88,2.31-1.52,3.64-1.84c1.47-0.35,2.72-1.25,3.53-2.52l2.89-4.57c0.76-1.2,1.81-2.21,3.03-2.92l2.36-1.37
					c0.75-0.44,1.41-1.05,1.89-1.78c1.19-1.77,2.96-3.05,5.01-3.62l4.9-1.35c1.6-0.44,2.94-1.55,3.66-3.05
					c0.2-0.42,0.35-0.86,0.45-1.31c0.29-1.39,0.93-2.71,1.83-3.8c0.41-0.5,0.74-1.07,0.96-1.69l2.97-8.16
					c0.87-2.4,2.74-4.31,5.13-5.23l4.81-1.86c2.12-0.82,3.56-2.81,3.68-5.08l0.45-8.95c0.09-1.83,0.74-3.56,1.87-5l6.37-8.15
					c1.44-1.84,1.62-4.34,0.48-6.38l-0.23-0.41c-1.44-2.56-1.52-5.65-0.23-8.27c0.6-1.21,0.75-2.61,0.42-3.93l-1.92-7.79
					c-0.36-1.47-0.34-3.03,0.07-4.49l0.81-2.93c0.47-1.71,0.15-3.51-0.9-4.94l-2.78-3.79c-1.03-1.41-1.62-3.08-1.7-4.83l-0.26-5.72
					c-0.03-0.77-0.22-1.52-0.55-2.21c-1.34-2.82-1.09-6.17,0.65-8.75c1.65-2.45,4.39-3.91,7.34-3.91c0.17,0,0.34,0,0.51,0.01
					c0.63,0.04,1.26,0.05,1.88,0.05c1.31,0,2.59-0.08,3.81-0.24c1.12-0.15,3.48-0.51,6.77-1.28c0.67-0.16,1.35-0.24,2.04-0.24
					c1.2,0,2.37,0.24,3.48,0.71c0.41,0.18,0.84,0.3,1.29,0.38c0.22,0.04,1.46,0.25,3.27,0.44c2.52,0.27,4.94,0.41,7.17,0.41
					c6.47,0,11.69-1.12,15.49-3.33c3.31-1.92,6.35-4.09,9.04-6.44c1.62-1.41,3.68-2.19,5.83-2.19c0.22,0,0.44,0.01,0.66,0.03
					c0.16,0.01,0.32,0.02,0.48,0.02c0.37,0,0.74-0.03,1.1-0.09c0.3-0.05,2.98-0.54,6.08-2.01c4.52-2.14,7.8-5.36,9.49-9.29
					c1.25-2.91,3.11-8.95,1.45-16.65c-1.25-5.82-4.22-11.03-8.82-15.47c-2.78-2.68-3.5-6.82-1.79-10.28c1.48-3,4.6-4.94,7.95-4.94
					c0.43,0,0.86,0.03,1.28,0.09c0.29,0.04,0.57,0.06,0.85,0.06c0.87,0,1.7-0.19,2.48-0.56c0.9-0.43,1.86-0.7,2.86-0.81
					c0.86-0.09,1.67-0.37,2.41-0.83c0.7-0.44,1.29-1.01,1.75-1.7c1.32-1.98,3.42-3.36,5.76-3.79c1.44-0.27,2.72-1.07,3.59-2.25
					c0.81-1.1,1.88-2.01,3.1-2.63c1.28-0.66,2.26-1.76,2.77-3.1c0.31-0.82,0.43-1.68,0.35-2.55c-0.24-2.65,0.71-5.25,2.61-7.12
					c0.13-0.13,0.26-0.27,0.38-0.41c1.21-1.45,2.89-2.49,4.72-2.93c1.45-0.35,2.69-1.23,3.49-2.48c0.34-0.52,0.58-1.08,0.74-1.68
					c0.36-1.37,1.04-2.65,1.99-3.7c0.41-0.45,0.74-0.96,0.98-1.52c0.27-0.6,0.43-1.24,0.47-1.9c0.12-1.63,0.69-3.19,1.64-4.52
					c0.8-1.12,1.18-2.5,1.06-3.87c-0.06-0.63-0.21-1.24-0.47-1.82c-0.86-1.93-1-4.11-0.39-6.14c0.26-0.86,0.31-1.79,0.15-2.68
					c-0.15-0.83-0.47-1.59-0.95-2.27c-1.23-1.75-1.78-3.89-1.55-6.02c0.03-0.32,0.05-0.65,0.05-0.96c0-1.43,0.36-2.86,1.03-4.13
					c0.06-0.12,0.13-0.25,0.2-0.39c1.08-2.26,1.14-4.74,0.15-6.79c-0.56-1.16-1.76-2.95-5.79-7.92c-1.97-2.42-3.58-5.2-4.78-8.25
					c-2.15-5.45-7.01-14.65-17.95-27.52c-1.36-1.61-2.25-3.55-3.26-5.8c-1.12-2.47-2.28-5.02-4.22-7.52
					c-2.37-3.03-5.3-5.27-8.41-7.65c-1.77-1.35-3.43-2.62-4.75-3.89c-0.15-0.14-0.3-0.29-0.44-0.45c-1.38-1.53-2.95-4.17-4.78-8.05
					c-1.79-3.79-3.5-8.08-5.15-12.24c-3.79-9.55-5.91-14.63-8.9-17.22c-2.54-2.2-5.38-3.32-7.88-4.31c-1.5-0.59-2.64-1.05-3.59-1.58
					c-1.41-0.78-2.59-1.94-3.39-3.34c-0.45-0.78-0.94-1.7-1.46-2.66c-4.02-7.46-9.49-17.59-24.66-24.71
					c-8.32-3.9-16.21-7.21-23.18-10.13l-0.17-0.07c-2.72-1.14-5.53-2.32-8.03-3.39c-1.13-0.49-2.32-0.8-3.54-0.93
					c-0.44-0.05-0.88-0.07-1.32-0.07c-6.03,0-11.07,4.34-11.99,10.32c-1.46,9.54-2.35,16.05-2.65,19.36
					c-0.46,5.04-3.23,14.38-6.6,22.21c-0.08,0.19-0.16,0.37-0.23,0.55c-0.97,2.39-2.93,4.23-5.37,5.06
					c-0.92,0.31-1.87,0.47-2.84,0.47c-1.58,0-3.13-0.42-4.49-1.22l-2.31-1.36c-0.71-0.42-1.49-0.68-2.31-0.77
					c-0.2-0.02-0.41-0.03-0.61-0.03c-0.89,0-1.74,0.2-2.54,0.59c-1.21,0.59-2.55,0.91-3.9,0.91c-1.39,0-2.77-0.33-4.01-0.96
					l-9.35-4.74c-0.63-0.32-1.3-0.52-1.99-0.59c-0.2-0.02-0.4-0.03-0.6-0.03c-0.7,0-1.41,0.13-2.07,0.38
					c-1.01,0.38-2.07,0.58-3.14,0.58c-1.29,0-2.53-0.27-3.7-0.81l-15.9-7.32c-0.73-0.33-1.56-0.51-2.39-0.51
					c-1.04,0-2.05,0.26-2.91,0.77c-1.35,0.78-2.88,1.19-4.43,1.19c-1.26,0-2.49-0.26-3.64-0.78l-7.48-3.37
					c-0.56-0.25-1.16-0.42-1.76-0.48c-0.2-0.02-0.4-0.03-0.59-0.03c-2.15,0-4.17,1.24-5.15,3.15c-0.15,0.29-0.27,0.6-0.37,0.91
					c-1.16,3.72-4.56,6.22-8.45,6.22c-0.88,0-1.76-0.13-2.61-0.4l-7.33-2.26c-0.36-0.11-0.73-0.19-1.1-0.23
					c-0.2-0.02-0.41-0.03-0.61-0.03c-2.36,0-4.52,1.48-5.37,3.69c-0.04,0.09-0.07,0.19-0.1,0.28c-0.9,2.76-3.07,4.9-5.82,5.74
					c-1.6,0.49-2.91,1.65-3.58,3.17c-1.42,3.2-4.6,5.27-8.1,5.27c0,0-0.28,0-0.42-0.01l-6.65-0.31c-0.09,0-0.18-0.01-0.27-0.01
					c-2.81,0-5.2,2.01-5.67,4.79c-0.02,0.09-0.03,0.18-0.04,0.27c-0.55,4.4-4.33,7.73-8.78,7.73l-4.37-0.1
					c-2.34,0-4.37,1.34-5.29,3.5c-1.39,3.27-4.59,5.39-8.15,5.39c-0.31,0-0.63-0.02-0.95-0.05l-3.27-0.36
					c-0.2-0.02-0.4-0.03-0.6-0.03c-2.62,0-4.97,1.83-5.61,4.36c-0.04,0.16-0.08,0.33-0.1,0.49c-0.54,3.34-2.87,6.04-6.09,7.05
					c-0.85,0.27-1.64,0.74-2.29,1.36c-1.66,1.61-3.85,2.49-6.15,2.49c-0.24,0-0.48-0.01-0.72-0.03h-0.03l-10.48-1.16
					C301.59,301.03,301.42,301.02,301.24,301.02z"/>
				<path class="st0" d="M536.06,187.07c0.92,0,1.85,0.05,2.79,0.15h0c2.59,0.28,5.12,0.94,7.52,1.97c2.47,1.07,5.29,2.25,8.02,3.39
					c7.11,2.97,15.16,6.35,23.75,10.38C597.4,212,604.95,225.99,609,233.5c0.2,0.36,0.39,0.72,0.57,1.06
					c0.32,0.13,0.64,0.25,0.86,0.34c3.01,1.18,7.53,2.97,11.84,6.7c5.41,4.68,8.06,10.93,12.65,22.47
					c1.58,3.99,3.22,8.09,4.83,11.51c1.43,3.04,2.27,4.3,2.54,4.67c0.78,0.71,2.08,1.7,3.34,2.66c3.33,2.54,7.47,5.69,10.92,10.13
					c2.95,3.78,4.65,7.54,5.89,10.28c0.4,0.89,1.01,2.22,1.29,2.66c12.11,14.27,17.67,24.89,20.19,31.29
					c0.69,1.75,1.59,3.31,2.67,4.64c4.96,6.11,6.42,8.36,7.5,10.6c2.73,5.65,2.76,12.24,0.11,18.15c1.02,1.85,1.73,3.84,2.1,5.94
					c0.44,2.42,0.41,4.93-0.08,7.34c0.49,1.46,0.81,2.97,0.95,4.51c0.38,4.2-0.62,8.39-2.82,11.96c-0.25,1.75-0.74,3.46-1.46,5.09
					c-0.67,1.52-1.53,2.95-2.56,4.24c-0.52,1.6-1.24,3.13-2.16,4.55c-2.19,3.4-5.34,5.99-9.03,7.48c-0.14,1.84-0.54,3.64-1.2,5.4
					c-1.58,4.19-4.52,7.68-8.36,9.93c-2.48,2.99-5.76,5.14-9.47,6.23c-1.34,1.62-2.93,3.01-4.74,4.13c-2.23,1.38-4.75,2.31-7.34,2.7
					c-0.12,0.05-0.25,0.1-0.38,0.16c3.23,4.69,5.5,9.89,6.67,15.36c2.45,11.42-0.37,20.53-2.26,24.94
					c-3.03,7.05-8.63,12.67-16.2,16.26c-4.4,2.09-8.19,2.89-9.62,3.14c-0.94,0.16-1.89,0.26-2.84,0.29
					c-2.97,2.45-6.23,4.71-9.72,6.74c-5.93,3.45-13.46,5.18-22.44,5.18c-2.72,0-5.57-0.16-8.56-0.48c-2.23-0.24-3.75-0.49-4.16-0.56
					c-0.93-0.16-1.86-0.39-2.76-0.69c-3.14,0.69-5.49,1.05-6.69,1.2c-0.59,0.08-1.18,0.14-1.78,0.19c0.02,0.21,0.03,0.43,0.04,0.64
					l0.19,4.25l1.91,2.61c3.54,4.84,4.66,10.93,3.05,16.71l-0.47,1.7l1.62,6.56c0.89,3.62,0.72,7.41-0.46,10.91
					c2.87,6.52,1.96,14.1-2.49,19.8l-5.43,6.94l-0.38,7.42c-0.39,7.67-5.27,14.41-12.43,17.18l-2.75,1.06l-2.21,6.09
					c-0.63,1.72-1.48,3.33-2.55,4.8c-0.31,1.13-0.72,2.22-1.23,3.28c-2.44,5.06-6.95,8.82-12.37,10.31l-3.3,0.91
					c-1.47,1.78-3.25,3.31-5.25,4.46l-1.33,0.77l-2.25,3.56c-2.51,3.97-6.3,6.85-10.76,8.21c-44.55,37-96.97,41.41-99.19,41.58
					c-0.41,0.03-0.83,0.05-1.24,0.06c-0.96,0.01-1.92,0.02-2.87,0.02c-7.82,0-15.65-0.41-23.33-1.23
					c-21.75-2.32-43.09-7.96-63.43-16.78c-17.07-7.4-33.59-17.09-49.11-28.82c-29.96-22.64-48.59-47.17-55.2-56.66
					c-18.43-26.44-20.26-58.36-21.47-79.48c-0.16-2.79-0.31-5.41-0.48-7.69c-1.59-20.96,1.61-37.87,5.48-47.73
					c-0.17-0.16-0.33-0.31-0.49-0.47c-6.34-6.31-7.5-16.03-3.11-23.58c-4.38-7.52-3.23-17.31,3.04-23.58l5.15-5.15
					c-1.39-4.9-0.79-10.21,1.63-14.67c-1.01-1.4-1.84-2.93-2.45-4.55c-2.51-6.65-1.22-13.97,3.23-19.31
					c-0.44-8,4.06-15.5,11.56-18.82l11.06-4.9c0.18-8.69,6.18-16.39,14.84-18.5l5.02-1.23c2.34-6.55,8.01-11.36,14.93-12.57
					c2.67-7.23,9.49-12.37,17.43-12.71l1.16-0.05c0.64-0.84,1.35-1.63,2.12-2.36c2.56-8.07,10.12-13.56,18.55-13.56
					c0.68,0,1.37,0.04,2.07,0.11c0.02,0,0.05,0.01,0.09,0.01l8.08,0.89c1-0.75,2.08-1.41,3.21-1.96
					c2.56-8.07,10.16-13.59,18.57-13.59c0.68,0,1.36,0.04,2.05,0.11c0,0,0,0,0,0l0.09,0.01c3.57-5.32,9.55-8.56,16.12-8.56
					c0.16,0,0.31,0,0.47,0.01l0.15,0c2.79-7.53,10.04-12.71,18.25-12.71c0.31,0,0.61,0.01,0.92,0.02l3.66,0.17
					c2.01-2.98,4.82-5.35,8.12-6.84c3.21-6.83,10.11-11.19,17.61-11.19c0.68,0,1.37,0.04,2.06,0.11c0,0,0,0,0,0
					c1.24,0.13,2.48,0.39,3.68,0.76l3.29,1.01c3.54-5.72,9.89-9.24,16.6-9.24c0.67,0,1.35,0.04,2.03,0.11
					c2.05,0.22,4.05,0.76,5.94,1.61l5.4,2.44c2.36-0.96,4.9-1.47,7.44-1.47c0.68,0,1.35,0.04,2.02,0.11
					c2.1,0.22,4.14,0.79,6.07,1.67l14.21,6.54c1.6-0.41,3.24-0.62,4.89-0.62c0.68,0,1.36,0.04,2.04,0.11c0,0,0,0,0.01,0
					c2.35,0.25,4.61,0.92,6.73,2l7.38,3.74c2-0.68,4.1-1.02,6.21-1.02c0.69,0,1.38,0.04,2.07,0.11c0,0,0,0,0,0
					c1.79,0.19,3.52,0.62,5.17,1.29c2.11-5.68,3.63-11.31,3.86-13.84c0.33-3.59,1.25-10.38,2.75-20.19
					C512.49,196.26,523.43,187.07,536.06,187.07 M506.41,254.75c-0.86,0-1.71-0.23-2.46-0.67l-2.31-1.36
					c-1.21-0.71-2.52-1.15-3.91-1.3c0,0,0,0,0,0c-0.35-0.04-0.69-0.06-1.04-0.06c-1.49,0-2.96,0.34-4.3,1
					c-0.67,0.33-1.41,0.5-2.14,0.5c-0.75,0-1.5-0.18-2.19-0.53l-9.35-4.74c-1.06-0.54-2.2-0.88-3.38-1c0,0,0,0,0,0
					c-0.34-0.04-0.68-0.05-1.02-0.05c-1.19,0-2.38,0.22-3.49,0.64c-0.56,0.21-1.14,0.32-1.72,0.32c-0.69,0-1.39-0.15-2.03-0.44
					l-15.91-7.32c-1.28-0.59-2.67-0.88-4.06-0.88c-1.71,0-3.42,0.44-4.91,1.3c-0.75,0.43-1.59,0.65-2.43,0.65
					c-0.68,0-1.36-0.14-1.99-0.43l-7.47-3.37c-0.95-0.43-1.95-0.7-2.98-0.81c-0.34-0.04-0.68-0.05-1.02-0.05
					c-3.63,0-7.04,2.05-8.71,5.33c-0.25,0.49-0.46,1.01-0.63,1.54c-0.65,2.08-2.56,3.41-4.63,3.41c-0.47,0-0.96-0.07-1.43-0.22
					l-7.33-2.26c-0.61-0.19-1.23-0.32-1.85-0.38c0,0,0,0,0,0c-0.34-0.04-0.69-0.05-1.03-0.05c-3.99,0-7.64,2.46-9.1,6.26
					c-0.06,0.17-0.12,0.34-0.18,0.5c-0.49,1.5-1.68,2.67-3.19,3.14c-2.71,0.83-4.92,2.79-6.06,5.37c-0.78,1.76-2.52,2.89-4.44,2.89
					c-0.08,0-0.15,0-0.23-0.01l-6.65-0.31c-0.15-0.01-0.31-0.01-0.46-0.01c-4.72,0-8.81,3.42-9.62,8.12
					c-0.02,0.14-0.05,0.29-0.06,0.43c-0.3,2.43-2.37,4.25-4.81,4.25c-0.04,0-0.08,0-0.11,0l-4.02-0.09c-0.08,0-0.16,0-0.24,0
					c-3.93,0-7.43,2.31-8.97,5.93c-0.77,1.81-2.53,2.95-4.47,2.95c-0.17,0-0.35-0.01-0.52-0.03l-3.26-0.36c0,0,0,0,0,0
					c-0.35-0.04-0.69-0.05-1.03-0.05c-4.43,0-8.4,3.03-9.49,7.39c-0.07,0.27-0.13,0.55-0.17,0.83c-0.29,1.82-1.59,3.31-3.34,3.86
					c-1.44,0.45-2.78,1.25-3.87,2.3c-0.91,0.88-2.12,1.36-3.37,1.36c-0.17,0-0.34-0.01-0.51-0.03c-0.01,0-0.01,0-0.02,0l-10.17-1.12
					c-0.02,0-0.04,0-0.05-0.01c-0.34-0.04-0.68-0.05-1.02-0.05c-4.48,0-8.46,3.09-9.5,7.53l-0.02,0.09
					c-0.24,1.08-0.85,2.04-1.71,2.72c-1.02,0.81-1.86,1.81-2.48,2.95c-0.82,1.49-2.35,2.45-4.05,2.52l-3.65,0.16
					c-4.64,0.2-8.52,3.67-9.23,8.26c-0.35,2.26-2.23,3.98-4.52,4.11l-1.27,0.07c-4.54,0.26-8.26,3.56-9.05,8.03
					c-0.34,1.89-1.76,3.41-3.63,3.87l-7.8,1.91c-4.78,1.17-7.95,5.74-7.37,10.63c0.02,0.21,0.06,0.42,0.09,0.62
					c0.41,2.21-0.76,4.4-2.81,5.31l-14.18,6.28c-4.17,1.85-6.49,6.26-5.64,10.73c0.31,1.65-0.25,3.34-1.48,4.47
					c-2.94,2.71-3.93,6.88-2.52,10.63c0.57,1.51,1.51,2.86,2.72,3.91c0.98,0.85,1.58,2.06,1.66,3.36c0.08,1.3-0.36,2.57-1.22,3.54
					c-2.64,2.96-3.21,7.33-1.43,10.87c0.94,1.87,0.58,4.13-0.9,5.61l-7.38,7.38c-3.4,3.4-3.8,8.88-0.92,12.74
					c0.18,0.24,0.38,0.48,0.57,0.7c1.58,1.75,1.67,4.38,0.22,6.24l-0.64,0.82c-3.04,3.89-2.69,9.45,0.81,12.93
					c0.61,0.61,1.3,1.14,2.05,1.56c2.22,1.26,3.08,4.03,1.97,6.33c-0.14,0.3-0.29,0.6-0.43,0.9c-3.83,8.17-7.34,24.43-5.75,45.57
					c0.18,2.37,0.33,5.03,0.49,7.84c1.15,20.05,2.88,50.32,19.74,74.51c6.35,9.11,24.24,32.66,53.09,54.47
					c14.9,11.26,30.75,20.56,47.12,27.66c19.43,8.42,39.82,13.82,60.6,16.03c7.33,0.78,14.82,1.18,22.29,1.18
					c0.92,0,1.84-0.01,2.76-0.02c0.21,0,0.41-0.01,0.62-0.03c2.11-0.16,52.15-4.38,94.51-40.02c0.58-0.49,1.26-0.83,2-1.01
					c2.49-0.59,4.62-2.11,5.98-4.28l2.89-4.57c0.42-0.66,0.99-1.21,1.66-1.6l2.35-1.37c1.28-0.74,2.39-1.78,3.21-3.01
					c0.65-0.97,1.62-1.67,2.75-1.98l4.9-1.35c2.72-0.75,4.98-2.63,6.2-5.17c0.34-0.71,0.6-1.45,0.76-2.22
					c0.16-0.76,0.51-1.48,1-2.08c0.71-0.86,1.26-1.82,1.64-2.88l2.97-8.16c0.48-1.32,1.51-2.36,2.81-2.87l4.81-1.86
					c3.59-1.39,6.04-4.77,6.23-8.61l0.45-8.95c0.05-1,0.41-1.96,1.02-2.74l6.37-8.15c2.44-3.12,2.76-7.36,0.81-10.8l-0.23-0.41
					c-0.79-1.4-0.83-3.09-0.12-4.53c1.02-2.06,1.27-4.43,0.72-6.66l-1.92-7.79c-0.2-0.81-0.19-1.66,0.04-2.46l0.81-2.93
					c0.81-2.9,0.25-5.95-1.53-8.38l-2.78-3.79c-0.57-0.77-0.89-1.69-0.93-2.65l-0.26-5.72c-0.06-1.31-0.37-2.57-0.94-3.75
					c-0.74-1.55-0.6-3.37,0.36-4.79c0.9-1.34,2.42-2.14,4.02-2.14c0.09,0,0.19,0,0.28,0.01c0.71,0.04,1.42,0.06,2.12,0.06
					c1.48,0,2.93-0.09,4.33-0.28c1.2-0.16,3.73-0.54,7.17-1.36c0.37-0.09,0.74-0.13,1.12-0.13c0.65,0,1.3,0.13,1.91,0.39
					c0.69,0.3,1.42,0.51,2.17,0.64c0.15,0.03,1.5,0.26,3.53,0.47c2.68,0.29,5.21,0.43,7.59,0.43c7.2,0,13.06-1.29,17.5-3.87
					c3.53-2.05,6.78-4.37,9.66-6.88c0.89-0.78,2.02-1.2,3.19-1.2c0.12,0,0.24,0,0.36,0.01c0.26,0.02,0.52,0.03,0.78,0.03
					c0.6,0,1.19-0.05,1.78-0.15c0.57-0.1,3.62-0.68,7.11-2.34c5.41-2.57,9.36-6.48,11.45-11.33c1.44-3.35,3.58-10.28,1.69-19.07
					c-1.42-6.61-4.77-12.51-9.95-17.51c-1.52-1.47-1.92-3.74-0.98-5.64c0.83-1.68,2.53-2.71,4.36-2.71c0.23,0,0.47,0.02,0.7,0.05
					c0.47,0.07,0.95,0.1,1.43,0.1c1.45,0,2.89-0.32,4.2-0.95c0.49-0.24,1.02-0.39,1.57-0.44c1.46-0.16,2.84-0.63,4.09-1.41
					c1.2-0.74,2.2-1.71,2.98-2.88c0.73-1.09,1.86-1.84,3.15-2.08c2.45-0.45,4.61-1.81,6.08-3.81c0.45-0.61,1.03-1.1,1.7-1.44
					c2.17-1.11,3.84-2.97,4.69-5.25c0.52-1.39,0.72-2.85,0.59-4.32c-0.13-1.45,0.39-2.88,1.43-3.9c0.23-0.22,0.45-0.46,0.65-0.7
					c0.67-0.8,1.57-1.36,2.58-1.61c2.45-0.59,4.55-2.08,5.91-4.2c0.57-0.88,0.99-1.84,1.25-2.84c0.2-0.75,0.57-1.45,1.09-2.03
					c0.69-0.77,1.25-1.63,1.67-2.58c0.45-1.03,0.73-2.11,0.81-3.23c0.07-0.89,0.38-1.75,0.9-2.47c1.36-1.9,2-4.23,1.79-6.56
					c-0.1-1.07-0.36-2.11-0.8-3.09c-0.47-1.06-0.55-2.25-0.21-3.36c0.44-1.46,0.53-3.03,0.26-4.54c-0.25-1.4-0.79-2.7-1.61-3.86
					c-0.67-0.96-0.97-2.13-0.85-3.3c0.05-0.46,0.07-0.93,0.08-1.38c0-0.79,0.2-1.56,0.56-2.26c0.09-0.18,0.18-0.35,0.27-0.53
					c1.61-3.37,1.66-7.1,0.14-10.25c-0.72-1.49-1.98-3.4-6.29-8.7c-1.71-2.1-3.11-4.53-4.16-7.2c-2.26-5.73-7.33-15.35-18.62-28.64
					c-0.95-1.12-1.63-2.57-2.67-4.86c-1.16-2.56-2.47-5.45-4.71-8.33c-2.68-3.44-5.97-5.95-9.14-8.37c-1.67-1.28-3.25-2.48-4.4-3.59
					c-0.08-0.08-0.16-0.16-0.23-0.24c-0.76-0.84-2.1-2.76-4.14-7.09c-1.74-3.69-3.43-7.94-5.06-12.05
					c-4.02-10.11-6.29-15.53-9.99-18.73c-3.06-2.65-6.38-3.95-9.04-5c-1.36-0.54-2.37-0.94-3.11-1.35
					c-0.78-0.43-1.42-1.06-1.86-1.83c-0.44-0.77-0.93-1.68-1.45-2.64c-4.01-7.44-10.08-18.69-26.44-26.37
					c-8.41-3.95-16.36-7.27-23.38-10.21c-2.75-1.15-5.59-2.34-8.11-3.43c-1.5-0.65-3.09-1.06-4.7-1.24h0
					c-0.58-0.06-1.17-0.09-1.74-0.09c-7.89,0-14.72,5.74-15.94,13.72c-1.47,9.61-2.37,16.21-2.68,19.6
					c-0.42,4.6-3.12,13.63-6.29,20.99c-0.09,0.21-0.18,0.42-0.26,0.63c-0.53,1.31-1.6,2.32-2.94,2.77
					C507.46,254.66,506.93,254.75,506.41,254.75 M663.67,305.92C663.67,305.92,663.67,305.92,663.67,305.92
					C663.67,305.92,663.67,305.92,663.67,305.92C663.67,305.92,663.67,305.91,663.67,305.92
					C663.67,305.92,663.67,305.92,663.67,305.92 M536.06,179.07c-8.04,0-15.84,2.88-21.96,8.11c-6.16,5.27-10.24,12.6-11.47,20.64
					c-1.52,9.97-2.47,16.93-2.81,20.67c-0.07,0.72-0.47,2.62-1.23,5.24c-0.64-0.04-1.28-0.07-1.92-0.07c-1.78,0-3.56,0.17-5.3,0.51
					l-4.68-2.37c-2.94-1.49-6.08-2.43-9.34-2.8l-0.43-0.06l-0.19,0c-0.8-0.07-1.62-0.11-2.43-0.11c-1.3,0-2.6,0.09-3.89,0.28
					l-11.87-5.46c-2.72-1.25-5.6-2.05-8.57-2.36c-0.95-0.1-1.91-0.15-2.87-0.15c-2.37,0-4.71,0.3-6.99,0.9l-2.57-1.16
					c-2.66-1.2-5.48-1.97-8.38-2.28c-0.95-0.1-1.92-0.15-2.88-0.15c-7.32,0-14.34,2.99-19.45,8.07c-1.08-0.25-2.17-0.43-3.27-0.55
					l-0.42-0.05h-0.04c-0.81-0.07-1.63-0.11-2.45-0.11c-9.62,0-18.54,5.11-23.48,13.23c-2.17,1.27-4.14,2.82-5.88,4.62
					c-0.32-0.01-0.63-0.02-0.94-0.02c-9.6,0-18.44,5.08-23.38,13.07c-5.88,0.97-11.26,3.82-15.35,8.12
					c-9.76,0.59-18.59,6.5-22.96,15.14l-4.41-0.49l-0.09-0.01c-1-0.11-1.98-0.16-2.94-0.16c-10.98,0-20.71,6.42-25.08,16.26
					c-8.4,1.25-15.69,6.31-19.83,13.66c-6.32,2.2-11.64,6.66-14.91,12.49l-1.28,0.31c-10.3,2.52-18.08,10.71-20.3,20.78l-6.93,3.07
					c-9.59,4.25-15.76,13.27-16.31,23.5c-4.77,7.27-5.84,16.5-2.72,24.76c0.3,0.79,0.63,1.56,1,2.32c-1.21,3.65-1.65,7.54-1.3,11.37
					l-2.21,2.21c-7.74,7.74-10.04,19.25-6.22,29.24c-3.28,8.6-2.01,18.32,3.37,25.8c-2.66,8.55-6.06,24.42-4.39,46.58
					c0.17,2.22,0.32,4.81,0.47,7.54c1.26,22.02,3.17,55.3,22.89,83.6c6.84,9.81,26.07,35.14,56.94,58.47
					c16.02,12.11,33.1,22.12,50.75,29.77c21.08,9.14,43.2,14.99,65.76,17.39c7.94,0.85,16.08,1.28,24.18,1.28
					c0.99,0,1.99-0.01,2.98-0.02c0.59-0.01,1.19-0.03,1.77-0.08c2.28-0.17,56.28-4.71,102.52-42.46
					c5.58-2.09,10.35-5.96,13.56-11.04l1.21-1.92c1.89-1.14,3.63-2.5,5.2-4.06l1.08-0.3c7.64-2.1,14.01-7.4,17.45-14.54
					c0.51-1.05,0.95-2.13,1.32-3.24c1.13-1.74,2.07-3.62,2.78-5.58l0.98-2.68c9.75-4.05,16.35-13.39,16.89-23.98l0.25-4.89
					l3.87-4.95c5.61-7.18,7.26-16.56,4.58-25.1c0.9-4.1,0.85-8.35-0.17-12.45l-1.12-4.52c1.67-6.3,1.06-12.85-1.65-18.63
					c0.81,0.12,1.9,0.26,3.2,0.4c3.25,0.35,6.41,0.52,9.4,0.52c10.41,0,19.31-2.11,26.46-6.26c3.1-1.8,6.04-3.77,8.79-5.89
					c0.38-0.05,0.75-0.11,1.12-0.17c2.18-0.38,6.59-1.37,11.69-3.79c9.35-4.44,16.31-11.47,20.12-20.33
					c2.27-5.29,5.65-16.19,2.73-29.78c-0.7-3.25-1.71-6.41-3.03-9.45c0.16-0.09,0.32-0.19,0.47-0.29c1.85-1.15,3.55-2.5,5.07-4.03
					c3.88-1.52,7.34-3.89,10.17-6.97c4.83-3.18,8.57-7.84,10.61-13.27c0.36-0.97,0.67-1.95,0.93-2.94c3.41-2.12,6.32-4.98,8.54-8.42
					c1.03-1.59,1.89-3.29,2.57-5.06c1.08-1.51,2-3.13,2.75-4.84c0.79-1.79,1.39-3.66,1.78-5.56c2.52-4.7,3.63-10.12,3.16-15.44
					c-0.13-1.46-0.38-2.9-0.73-4.31c0.34-2.75,0.26-5.51-0.23-8.25c-0.3-1.66-0.74-3.27-1.33-4.83c2.17-7.1,1.65-14.68-1.55-21.31
					c-1.54-3.19-3.6-6.15-8.49-12.17c-0.57-0.7-1.05-1.55-1.44-2.53c-2.7-6.86-8.53-18.09-20.96-32.86
					c-0.23-0.48-0.53-1.15-0.67-1.46c-1.33-2.93-3.34-7.37-6.87-11.9c-4.09-5.25-8.88-8.9-12.38-11.57
					c-0.65-0.49-1.45-1.11-2.08-1.61c-0.3-0.53-0.77-1.42-1.42-2.78c-1.51-3.19-3.09-7.19-4.63-11.06
					c-4.92-12.38-8.04-19.67-14.85-25.57c-4.43-3.84-8.98-5.98-12.28-7.34c-4.46-8.17-13.35-22.94-33.69-32.49
					c-8.76-4.11-16.89-7.51-24.06-10.52l-0.2-0.09c-2.64-1.1-5.36-2.24-7.74-3.27c-3.14-1.35-6.45-2.22-9.84-2.58l-0.42-0.05h-0.03
					C538.19,179.12,537.12,179.07,536.06,179.07L536.06,179.07z M506.41,262.75c1.41,0,2.79-0.23,4.12-0.68
					c3.54-1.2,6.38-3.87,7.78-7.34c0.07-0.16,0.13-0.32,0.2-0.48c2.92-6.79,6.32-17.01,6.91-23.43c0.2-2.22,0.82-7.34,2.62-19.12
					c0.61-4.01,3.99-6.93,8.03-6.93c0.3,0,0.6,0.02,0.89,0.05l0.05,0.01c0.8,0.09,1.59,0.3,2.34,0.62c2.54,1.1,5.39,2.29,8.13,3.44
					l0.06,0.02c6.95,2.91,14.82,6.2,23.07,10.07c13.97,6.56,19.08,16.02,22.8,22.92c0.49,0.91,1.04,1.93,1.55,2.82
					c1.16,2.03,2.87,3.71,4.92,4.85c1.16,0.64,2.41,1.15,4.06,1.8c2.32,0.91,4.71,1.86,6.74,3.61c2.28,1.97,4.44,7.23,7.78,15.64
					c1.68,4.24,3.42,8.59,5.26,12.5c2,4.25,3.78,7.21,5.44,9.04c0.2,0.22,0.41,0.43,0.62,0.64c1.48,1.43,3.24,2.77,5.09,4.18
					c2.91,2.22,5.65,4.31,7.69,6.93c1.66,2.12,2.67,4.35,3.73,6.71c1.1,2.42,2.14,4.71,3.86,6.74
					c10.59,12.46,15.24,21.23,17.28,26.4c1.35,3.43,3.17,6.56,5.4,9.31c3.16,3.89,4.79,6.09,5.3,7.14c0.46,0.95,0.4,2.16-0.15,3.32
					c-0.04,0.08-0.08,0.17-0.13,0.25c-0.97,1.83-1.49,3.9-1.49,5.98c0,0.18-0.01,0.37-0.03,0.55c-0.33,3.09,0.47,6.19,2.25,8.73
					c0.15,0.21,0.24,0.43,0.29,0.69c0.05,0.27,0.03,0.56-0.04,0.82c-0.88,2.94-0.69,6.11,0.56,8.91c0.08,0.18,0.12,0.36,0.14,0.55
					c0.04,0.42-0.08,0.84-0.32,1.18c-1.38,1.93-2.2,4.19-2.38,6.55c-0.01,0.2-0.06,0.39-0.15,0.58c-0.08,0.17-0.17,0.32-0.3,0.46
					c-1.37,1.52-2.37,3.38-2.88,5.37c-0.05,0.18-0.12,0.35-0.23,0.51c-0.25,0.39-0.62,0.65-1.07,0.76
					c-2.66,0.64-5.09,2.15-6.85,4.25c-0.04,0.04-0.08,0.09-0.12,0.13c-2.76,2.71-4.14,6.48-3.79,10.33
					c0.03,0.27-0.01,0.51-0.11,0.77c-0.16,0.42-0.45,0.74-0.85,0.95c-1.77,0.9-3.32,2.23-4.5,3.83c-0.27,0.36-0.65,0.6-1.1,0.68
					c-3.39,0.63-6.44,2.64-8.35,5.51c-0.14,0.22-0.31,0.38-0.54,0.52c-0.24,0.15-0.46,0.22-0.74,0.25
					c-1.44,0.16-2.84,0.55-4.15,1.18c-0.24,0.12-0.5,0.17-0.76,0.17c-0.09,0-0.17-0.01-0.26-0.02c-0.63-0.09-1.25-0.14-1.87-0.14
					c-4.94,0-9.36,2.75-11.54,7.17c-2.48,5.03-1.43,11.03,2.6,14.93c4.02,3.88,6.61,8.4,7.69,13.43c1.42,6.61-0.15,11.75-1.22,14.23
					c-1.3,3.03-3.91,5.54-7.53,7.26c-2.65,1.26-4.95,1.67-5.05,1.68c-0.13,0.02-0.27,0.03-0.42,0.03c-0.06,0-0.12,0-0.19-0.01
					c-0.31-0.02-0.64-0.04-0.96-0.04c-3.11,0-6.12,1.13-8.46,3.18c-2.49,2.18-5.32,4.19-8.41,5.99c-3.19,1.85-7.72,2.79-13.48,2.79
					c-2.1,0-4.37-0.13-6.75-0.38c-1.68-0.18-2.82-0.37-3.03-0.4c-0.11-0.02-0.25-0.06-0.38-0.11c-1.6-0.68-3.3-1.03-5.05-1.03
					c-1,0-1.99,0.12-2.96,0.35c-3.11,0.74-5.32,1.07-6.37,1.21c-1.05,0.14-2.16,0.21-3.29,0.21c-0.54,0-1.1-0.02-1.66-0.05
					c-0.25-0.01-0.5-0.02-0.74-0.02c-4.28,0-8.27,2.12-10.66,5.67c-2.52,3.75-2.89,8.61-0.95,12.7c0.1,0.22,0.16,0.44,0.17,0.68
					l0.26,5.72c0.11,2.54,0.97,4.97,2.47,7.02l2.78,3.8c0.33,0.45,0.42,0.97,0.28,1.51l-0.81,2.93c-0.59,2.12-0.62,4.38-0.1,6.52
					l1.93,7.8c0.1,0.4,0.05,0.83-0.13,1.2c-1.88,3.81-1.76,8.29,0.33,12l0.24,0.42c0.35,0.63,0.3,1.37-0.15,1.94l-6.37,8.15
					c-1.64,2.1-2.58,4.61-2.71,7.27l-0.45,8.95c-0.04,0.69-0.48,1.3-1.12,1.55l-4.81,1.86c-3.47,1.34-6.18,4.11-7.45,7.6l-2.97,8.16
					c-0.07,0.2-0.17,0.37-0.29,0.52c-1.31,1.59-2.23,3.5-2.66,5.52c-0.03,0.14-0.07,0.27-0.14,0.4c-0.22,0.46-0.63,0.8-1.12,0.93
					l-4.9,1.35c-2.98,0.82-5.56,2.68-7.28,5.25c-0.14,0.21-0.35,0.41-0.58,0.54l-2.35,1.37c-1.78,1.04-3.3,2.5-4.4,4.24l-2.89,4.57
					c-0.25,0.4-0.62,0.66-1.08,0.77c-1.94,0.46-3.77,1.38-5.29,2.66c-40.42,34-87.97,38.01-89.98,38.17c-0.03,0-0.07,0-0.11,0
					c-0.89,0.01-1.77,0.02-2.66,0.02c-7.19,0-14.41-0.38-21.45-1.13c-19.97-2.13-39.57-7.31-58.26-15.42
					c-15.78-6.84-31.08-15.82-45.47-26.7c-27.94-21.11-45.22-43.86-51.35-52.66c-15.56-22.33-17.22-51.25-18.32-70.39l0-0.08
					c-0.16-2.82-0.31-5.49-0.5-7.91c-1.48-19.61,1.77-34.65,5.01-41.57c0.13-0.27,0.25-0.54,0.38-0.8
					c2.93-6.07,0.65-13.43-5.21-16.77c-0.13-0.08-0.26-0.17-0.37-0.28c-0.63-0.63-0.7-1.63-0.15-2.33l0.64-0.82
					c3.85-4.93,3.6-11.87-0.59-16.52c-0.01-0.01-0.05-0.06-0.1-0.13c-0.5-0.67-0.42-1.7,0.17-2.29l7.38-7.38
					c3.93-3.93,4.89-9.91,2.39-14.87c-0.3-0.6-0.19-1.44,0.26-1.94c2.27-2.55,3.45-5.96,3.23-9.37c-0.22-3.41-1.82-6.65-4.4-8.88
					c-0.21-0.18-0.38-0.43-0.48-0.7c-0.26-0.7-0.09-1.41,0.45-1.92c3.29-3.03,4.75-7.46,3.92-11.85c-0.15-0.81,0.26-1.59,1.02-1.92
					l14.18-6.28c5.46-2.42,8.51-8.2,7.44-14.07c-0.01-0.04-0.01-0.08-0.02-0.12c-0.1-0.88,0.47-1.71,1.33-1.92l7.8-1.91
					c4.94-1.21,8.71-5.23,9.6-10.24c0.14-0.81,0.8-1.39,1.63-1.44l1.27-0.07c6.02-0.35,11.05-4.92,11.97-10.88
					c0.12-0.81,0.84-1.44,1.66-1.48l3.65-0.16c4.47-0.19,8.58-2.75,10.73-6.67c0.11-0.21,0.26-0.38,0.45-0.53
					c2.27-1.81,3.88-4.37,4.53-7.22l0.02-0.07c0.17-0.74,0.89-1.31,1.7-1.31c0.05,0,0.1,0,0.16,0.01l0.03,0l10.14,1.12l0.01,0
					l0.04,0l0.15,0.02l0.04,0c0.4,0.04,0.8,0.06,1.2,0.06c3.35,0,6.52-1.28,8.93-3.61c0.2-0.19,0.45-0.34,0.71-0.42
					c4.68-1.47,8.06-5.38,8.84-10.22c0.01-0.05,0.02-0.11,0.03-0.16c0.19-0.76,0.93-1.33,1.73-1.33c0.06,0,0.12,0,0.19,0.01
					l3.24,0.35c0.47,0.05,0.93,0.08,1.39,0.08c5.16,0,9.81-3.07,11.83-7.82c0.28-0.66,0.88-1.06,1.61-1.06l4.07,0.09
					c0.1,0,0.2,0,0.3,0c6.46,0,11.95-4.84,12.75-11.25l0.01-0.09c0.14-0.82,0.88-1.45,1.73-1.45l0.09,0l6.65,0.31
					c0.2,0.01,0.4,0.01,0.6,0.01c5.08,0,9.7-3,11.75-7.66c0.2-0.46,0.6-0.81,1.1-0.96c4-1.23,7.15-4.34,8.44-8.31
					c0.01-0.03,0.02-0.07,0.04-0.1c0.26-0.67,0.91-1.13,1.63-1.13c0.06,0,0.12,0,0.18,0.01c0.11,0.01,0.23,0.04,0.34,0.07l7.33,2.26
					c1.23,0.38,2.5,0.57,3.79,0.57c5.65,0,10.58-3.63,12.27-9.02c0.03-0.1,0.07-0.2,0.12-0.29c0.29-0.57,0.94-0.96,1.58-0.96
					c0.06,0,0.11,0,0.17,0.01c0.18,0.02,0.36,0.07,0.54,0.15l7.47,3.37c1.68,0.75,3.45,1.14,5.28,1.14c2.26,0,4.48-0.6,6.44-1.73
					c0.26-0.15,0.58-0.23,0.91-0.23c0.26,0,0.51,0.05,0.72,0.15l15.9,7.32c1.69,0.78,3.5,1.18,5.37,1.18c1.57,0,3.1-0.28,4.57-0.84
					c0.1-0.04,0.2-0.07,0.31-0.09l0.06,0.02l0.7,0c0.12,0.03,0.24,0.08,0.36,0.14l9.35,4.74c1.79,0.91,3.8,1.39,5.81,1.39
					c1.95,0,3.91-0.45,5.66-1.31c0.24-0.12,0.51-0.18,0.78-0.18c0.06,0,0.13,0,0.19,0.01l0.03,0c0.24,0.03,0.45,0.1,0.67,0.23
					l2.31,1.36C501.86,262.14,504.12,262.75,506.41,262.75L506.41,262.75z"/>
			</g>
		</g>
	</g>
</g>
</svg>
